<?xml version="1.0"?>
<!-- Generated by SVGo -->
<svg width="382.427mm" height="156.504mm"
     viewBox="0.000 0.000 382.427 156.504"
     xmlns="http://www.w3.org/2000/svg" 
     xmlns:xlink="http://www.w3.org/1999/xlink">
<polygon points="372.427,5.001 372.819,5.016 373.209,5.062 373.594,5.139 373.972,5.245 374.340,5.381 374.696,5.545 375.039,5.737 375.365,5.955 375.674,6.198 375.962,6.465 376.229,6.753 376.472,7.062 376.690,7.388 376.882,7.731 377.046,8.087 377.182,8.455 377.288,8.833 377.365,9.218 377.411,9.608 377.426,10.001 377.427,146.504 377.411,146.897 377.365,147.286 377.288,147.671 377.182,148.049 377.046,148.418 376.882,148.774 376.690,149.117 376.472,149.443 376.229,149.751 375.962,150.040 375.674,150.306 375.365,150.549 375.039,150.767 374.696,150.959 374.340,151.124 373.972,151.260 373.594,151.366 373.209,151.443 372.819,151.489 372.427,151.504 10.001,151.504 9.608,151.489 9.218,151.443 8.833,151.366 8.455,151.260 8.087,151.124 7.731,150.959 7.388,150.767 7.062,150.549 6.753,150.306 6.465,150.040 6.198,149.751 5.955,149.443 5.737,149.117 5.545,148.774 5.381,148.418 5.245,148.049 5.139,147.671 5.062,147.286 5.016,146.897 5.000,146.504 5.001,10.001 5.016,9.608 5.062,9.218 5.139,8.833 5.245,8.455 5.381,8.087 5.545,7.731 5.737,7.388 5.955,7.062 6.198,6.753 6.465,6.465 6.753,6.198 7.062,5.955 7.388,5.737 7.731,5.545 8.087,5.381 8.455,5.245 8.833,5.139 9.218,5.062 9.608,5.016 10.001,5.000" style="fill:none;stroke-width:0.050000mm;stroke:black"/>
<polygon points="371.654,144.127 370.957,144.482 370.404,145.035 370.049,145.732 369.927,146.504 370.049,147.277 370.404,147.974 370.957,148.527 371.654,148.882 372.427,149.004 373.199,148.882 373.896,148.527 374.449,147.974 374.804,147.277 374.927,146.504 374.804,145.732 374.449,145.035 373.896,144.482 373.199,144.127 372.427,144.004" style="fill:none;stroke-width:0.050000mm;stroke:black"/>
<polygon points="338.706,144.127 338.009,144.482 337.456,145.035 337.101,145.732 336.979,146.504 337.101,147.277 337.456,147.974 338.009,148.527 338.706,148.882 339.479,149.004 340.251,148.882 340.948,148.527 341.501,147.974 341.856,147.277 341.979,146.504 341.856,145.732 341.501,145.035 340.948,144.482 340.251,144.127 339.479,144.004" style="fill:none;stroke-width:0.050000mm;stroke:black"/>
<polygon points="305.758,144.127 305.061,144.482 304.508,145.035 304.153,145.732 304.031,146.504 304.153,147.277 304.508,147.974 305.061,148.527 305.758,148.882 306.531,149.004 307.303,148.882 308.000,148.527 308.553,147.974 308.909,147.277 309.031,146.504 308.909,145.732 308.553,145.035 308.000,144.482 307.303,144.127 306.531,144.004" style="fill:none;stroke-width:0.050000mm;stroke:black"/>
<polygon points="272.811,144.127 272.114,144.482 271.561,145.035 271.205,145.732 271.083,146.504 271.205,147.277 271.561,147.974 272.114,148.527 272.811,148.882 273.583,149.004 274.356,148.882 275.053,148.527 275.606,147.974 275.961,147.277 276.083,146.504 275.961,145.732 275.606,145.035 275.053,144.482 274.356,144.127 273.583,144.004" style="fill:none;stroke-width:0.050000mm;stroke:black"/>
<polygon points="239.863,144.127 239.166,144.482 238.613,145.035 238.258,145.732 238.135,146.504 238.258,147.277 238.613,147.974 239.166,148.527 239.863,148.882 240.635,149.004 241.408,148.882 242.105,148.527 242.658,147.974 243.013,147.277 243.135,146.504 243.013,145.732 242.658,145.035 242.105,144.482 241.408,144.127 240.635,144.004" style="fill:none;stroke-width:0.050000mm;stroke:black"/>
<polygon points="206.915,144.127 206.218,144.482 205.665,145.035 205.310,145.732 205.187,146.504 205.310,147.277 205.665,147.974 206.218,148.527 206.915,148.882 207.687,149.004 208.460,148.882 209.157,148.527 209.710,147.974 210.065,147.277 210.187,146.504 210.065,145.732 209.710,145.035 209.157,144.482 208.460,144.127 207.687,144.004" style="fill:none;stroke-width:0.050000mm;stroke:black"/>
<polygon points="173.967,144.127 173.270,144.482 172.717,145.035 172.362,145.732 172.240,146.504 172.362,147.277 172.717,147.974 173.270,148.527 173.967,148.882 174.740,149.004 175.512,148.882 176.209,148.527 176.762,147.974 177.117,147.277 177.240,146.504 177.117,145.732 176.762,145.035 176.209,144.482 175.512,144.127 174.740,144.004" style="fill:none;stroke-width:0.050000mm;stroke:black"/>
<polygon points="141.019,144.127 140.322,144.482 139.769,145.035 139.414,145.732 139.292,146.504 139.414,147.277 139.769,147.974 140.322,148.527 141.019,148.882 141.792,149.004 142.564,148.882 143.261,148.527 143.814,147.974 144.169,147.277 144.292,146.504 144.169,145.732 143.814,145.035 143.261,144.482 142.564,144.127 141.792,144.004" style="fill:none;stroke-width:0.050000mm;stroke:black"/>
<polygon points="108.071,144.127 107.374,144.482 106.821,145.035 106.466,145.732 106.344,146.504 106.466,147.277 106.821,147.974 107.374,148.527 108.071,148.882 108.844,149.004 109.616,148.882 110.313,148.527 110.866,147.974 111.222,147.277 111.344,146.504 111.222,145.732 110.866,145.035 110.313,144.482 109.616,144.127 108.844,144.004" style="fill:none;stroke-width:0.050000mm;stroke:black"/>
<polygon points="75.124,144.127 74.427,144.482 73.874,145.035 73.518,145.732 73.396,146.504 73.518,147.277 73.874,147.974 74.427,148.527 75.124,148.882 75.896,149.004 76.669,148.882 77.366,148.527 77.919,147.974 78.274,147.277 78.396,146.504 78.274,145.732 77.919,145.035 77.366,144.482 76.669,144.127 75.896,144.004" style="fill:none;stroke-width:0.050000mm;stroke:black"/>
<polygon points="42.176,144.127 41.479,144.482 40.926,145.035 40.571,145.732 40.448,146.504 40.571,147.277 40.926,147.974 41.479,148.527 42.176,148.882 42.948,149.004 43.721,148.882 44.418,148.527 44.971,147.974 45.326,147.277 45.448,146.504 45.326,145.732 44.971,145.035 44.418,144.482 43.721,144.127 42.948,144.004" style="fill:none;stroke-width:0.050000mm;stroke:black"/>
<polygon points="9.228,144.127 8.531,144.482 7.978,145.035 7.623,145.732 7.500,146.504 7.623,147.277 7.978,147.974 8.531,148.527 9.228,148.882 10.001,149.004 10.773,148.882 11.470,148.527 12.023,147.974 12.378,147.277 12.501,146.504 12.378,145.732 12.023,145.035 11.470,144.482 10.773,144.127 10.001,144.004" style="fill:none;stroke-width:0.050000mm;stroke:black"/>
<polygon points="205.263,114.590 205.663,115.283 200.640,118.183 200.240,117.490 197.555,119.040 197.955,119.733 197.089,120.233 204.089,132.357 204.955,131.857 205.355,132.550 208.040,131.000 207.640,130.307 212.663,127.407 213.063,128.099 215.748,126.550 215.348,125.857 216.214,125.357 209.214,113.233 208.348,113.733 207.948,113.040" style="fill:none;stroke-width:0.050000mm;stroke:black"/>
<polygon points="218.694,100.953 218.282,100.239 215.857,101.639 216.269,102.353 210.839,105.488 211.702,106.982 210.853,107.472 212.503,110.330 213.352,109.840 214.214,111.334 218.086,109.099 218.848,110.420 218.328,110.720 217.928,110.027 215.244,111.577 215.644,112.270 214.778,112.770 221.778,124.894 222.644,124.394 223.044,125.087 225.728,123.537 225.328,122.844 225.848,122.544 226.611,123.865 222.739,126.100 223.602,127.594 222.753,128.084 224.403,130.942 225.252,130.452 226.114,131.946 231.544,128.811 231.957,129.525 234.382,128.125 233.969,127.411 236.766,125.796 235.904,124.302 236.701,123.842 235.051,120.984 234.254,121.444 233.391,119.950 230.594,121.565 229.831,120.244 230.351,119.944 230.751,120.637 233.436,119.087 233.036,118.394 233.902,117.894 226.902,105.770 226.036,106.270 225.636,105.577 222.951,107.127 223.351,107.820 222.832,108.120 222.069,106.799 224.866,105.184 224.004,103.690 224.801,103.230 223.151,100.372 222.354,100.832 221.491,99.338" style="fill:none;stroke-width:0.050000mm;stroke:black"/>
<polygon points="171.868,112.457 171.002,111.957 164.002,124.081 164.868,124.581 164.468,125.274 167.153,126.824 167.553,126.131 172.576,129.031 172.176,129.724 174.860,131.274 175.260,130.581 176.126,131.081 183.126,118.957 182.260,118.457 182.660,117.764 179.976,116.214 179.576,116.907 174.553,114.007 174.953,113.314 172.268,111.764" style="fill:none;stroke-width:0.050000mm;stroke:black"/>
<polygon points="157.862,99.556 157.065,99.096 155.415,101.954 156.212,102.414 155.349,103.908 158.146,105.523 157.383,106.844 156.864,106.544 157.264,105.851 154.580,104.301 154.180,104.994 153.314,104.494 146.314,116.618 147.180,117.118 146.780,117.811 149.464,119.361 149.864,118.668 150.384,118.968 149.621,120.289 146.824,118.674 145.962,120.168 145.165,119.708 143.515,122.566 144.312,123.026 143.449,124.519 146.246,126.134 145.834,126.849 148.259,128.248 148.671,127.534 154.101,130.669 154.964,129.176 155.813,129.665 157.463,126.808 156.614,126.318 157.476,124.824 153.605,122.589 154.368,121.268 154.887,121.568 154.487,122.261 157.172,123.811 157.572,123.118 158.438,123.618 165.438,111.494 164.572,110.994 164.972,110.301 162.287,108.751 161.887,109.444 161.367,109.144 162.130,107.823 166.001,110.058 166.864,108.564 167.713,109.054 169.363,106.196 168.514,105.706 169.376,104.212 163.946,101.077 164.359,100.363 161.934,98.963 161.521,99.677 158.724,98.062" style="fill:none;stroke-width:0.050000mm;stroke:black"/>
<polygon points="371.654,116.826 370.957,117.181 370.404,117.734 370.049,118.431 369.927,119.203 370.049,119.976 370.404,120.673 370.957,121.226 371.654,121.581 372.427,121.703 373.199,121.581 373.896,121.226 374.449,120.673 374.804,119.976 374.927,119.203 374.804,118.431 374.449,117.734 373.896,117.181 373.199,116.826 372.427,116.703" style="fill:none;stroke-width:0.050000mm;stroke:black"/>
<polygon points="9.228,116.826 8.531,117.181 7.978,117.734 7.623,118.431 7.500,119.203 7.623,119.976 7.978,120.673 8.531,121.226 9.228,121.581 10.001,121.703 10.773,121.581 11.470,121.226 12.023,120.673 12.378,119.976 12.501,119.203 12.378,118.431 12.023,117.734 11.470,117.181 10.773,116.826 10.001,116.703" style="fill:none;stroke-width:0.050000mm;stroke:black"/>
<polygon points="241.034,105.860 241.534,106.726 240.841,107.126 242.391,109.810 243.084,109.410 245.984,114.433 245.291,114.833 246.841,117.518 247.534,117.118 248.034,117.984 260.157,110.984 259.657,110.118 260.351,109.718 258.801,107.033 258.108,107.433 255.208,102.410 255.901,102.010 254.351,99.326 253.658,99.726 253.158,98.860" style="fill:none;stroke-width:0.050000mm;stroke:black"/>
<polygon points="128.206,99.402 127.514,99.002 125.964,101.687 126.657,102.087 123.757,107.110 123.064,106.710 121.514,109.394 122.207,109.794 121.707,110.660 133.831,117.660 134.331,116.794 135.024,117.194 136.574,114.510 135.881,114.110 138.781,109.087 139.474,109.487 141.024,106.802 140.331,106.402 140.831,105.536 128.706,98.536" style="fill:none;stroke-width:0.050000mm;stroke:black"/>
<polygon points="38.957,102.774 38.957,103.774 38.157,103.774 38.157,106.874 38.957,106.874 38.957,112.674 38.157,112.674 38.157,115.774 38.957,115.774 38.957,116.774 52.957,116.774 52.957,115.774 53.757,115.774 53.757,112.674 52.957,112.674 52.957,106.874 53.757,106.874 53.757,103.774 52.957,103.774 52.957,102.774" style="fill:none;stroke-width:0.050000mm;stroke:black"/>
<polygon points="329.469,102.774 329.469,103.774 328.669,103.774 328.669,106.874 329.469,106.874 329.469,112.674 328.669,112.674 328.669,115.774 329.469,115.774 329.469,116.774 343.469,116.774 343.469,115.774 344.269,115.774 344.269,112.674 343.469,112.674 343.469,106.874 344.269,106.874 344.269,103.774 343.469,103.774 343.469,102.774" style="fill:none;stroke-width:0.050000mm;stroke:black"/>
<polygon points="60.388,100.869 60.388,101.869 59.588,101.869 59.588,104.969 60.388,104.969 60.388,110.769 59.588,110.769 59.588,113.869 60.388,113.869 60.388,114.869 74.388,114.869 74.388,113.869 75.188,113.869 75.188,110.769 74.388,110.769 74.388,104.969 75.188,104.969 75.188,101.869 74.388,101.869 74.388,100.869" style="fill:none;stroke-width:0.050000mm;stroke:black"/>
<polygon points="308.038,100.869 308.038,101.869 307.238,101.869 307.238,104.969 308.038,104.969 308.038,110.769 307.238,110.769 307.238,113.869 308.038,113.869 308.038,114.869 322.038,114.869 322.038,113.869 322.838,113.869 322.838,110.769 322.038,110.769 322.038,104.969 322.838,104.969 322.838,101.869 322.038,101.869 322.038,100.869" style="fill:none;stroke-width:0.050000mm;stroke:black"/>
<polygon points="79.438,96.107 79.438,97.107 78.638,97.107 78.638,100.207 79.438,100.207 79.438,106.007 78.638,106.007 78.638,109.107 79.438,109.107 79.438,110.107 93.438,110.107 93.438,109.107 94.238,109.107 94.238,106.007 93.438,106.007 93.438,100.207 94.238,100.207 94.238,97.107 93.438,97.107 93.438,96.107" style="fill:none;stroke-width:0.050000mm;stroke:black"/>
<polygon points="288.988,96.107 288.988,97.107 288.188,97.107 288.188,100.207 288.988,100.207 288.988,106.007 288.188,106.007 288.188,109.107 288.988,109.107 288.988,110.107 302.988,110.107 302.988,109.107 303.788,109.107 303.788,106.007 302.988,106.007 302.988,100.207 303.788,100.207 303.788,97.107 302.988,97.107 302.988,96.107" style="fill:none;stroke-width:0.050000mm;stroke:black"/>
<polygon points="98.488,93.726 98.488,94.726 97.688,94.726 97.688,97.825 98.488,97.825 98.488,103.626 97.688,103.626 97.688,106.726 98.488,106.726 98.488,107.726 112.488,107.726 112.488,106.726 113.288,106.726 113.288,103.626 112.488,103.626 112.488,97.825 113.288,97.825 113.288,94.726 112.488,94.726 112.488,93.726" style="fill:none;stroke-width:0.050000mm;stroke:black"/>
<polygon points="269.938,93.726 269.938,94.726 269.138,94.726 269.138,97.825 269.938,97.825 269.938,103.626 269.138,103.626 269.138,106.726 269.938,106.726 269.938,107.726 283.938,107.726 283.938,106.726 284.738,106.726 284.738,103.626 283.938,103.626 283.938,97.825 284.738,97.825 284.738,94.726 283.938,94.726 283.938,93.726" style="fill:none;stroke-width:0.050000mm;stroke:black"/>
<polygon points="29.432,83.724 29.432,84.724 28.632,84.724 28.632,87.824 29.432,87.824 29.432,88.424 27.907,88.424 27.907,85.194 26.182,85.194 26.182,84.274 22.882,84.274 22.882,85.194 21.157,85.194 21.157,88.424 20.332,88.424 20.332,91.224 21.157,91.224 21.157,97.494 22.882,97.494 22.882,98.474 26.182,98.474 26.182,97.494 27.907,97.494 27.907,93.024 29.432,93.024 29.432,93.624 28.632,93.624 28.632,96.724 29.432,96.724 29.432,97.724 43.432,97.724 43.432,96.724 44.232,96.724 44.232,93.624 43.432,93.624 43.432,93.024 44.957,93.024 44.957,97.494 46.682,97.494 46.682,98.474 49.982,98.474 49.982,97.494 51.707,97.494 51.707,91.224 52.532,91.224 52.532,88.424 51.707,88.424 51.707,85.194 49.982,85.194 49.982,84.274 46.682,84.274 46.682,85.194 44.957,85.194 44.957,88.424 43.432,88.424 43.432,87.824 44.232,87.824 44.232,84.724 43.432,84.724 43.432,83.724" style="fill:none;stroke-width:0.050000mm;stroke:black"/>
<polygon points="338.994,83.724 338.994,84.724 338.194,84.724 338.194,87.824 338.994,87.824 338.994,88.424 337.469,88.424 337.469,85.194 335.744,85.194 335.744,84.274 332.444,84.274 332.444,85.194 330.719,85.194 330.719,88.424 329.894,88.424 329.894,91.224 330.719,91.224 330.719,97.494 332.444,97.494 332.444,98.474 335.744,98.474 335.744,97.494 337.469,97.494 337.469,93.024 338.994,93.024 338.994,93.624 338.194,93.624 338.194,96.724 338.994,96.724 338.994,97.724 352.994,97.724 352.994,96.724 353.794,96.724 353.794,93.624 352.994,93.624 352.994,93.024 354.519,93.024 354.519,97.494 356.244,97.494 356.244,98.474 359.544,98.474 359.544,97.494 361.269,97.494 361.269,91.224 362.094,91.224 362.094,88.424 361.269,88.424 361.269,85.194 359.544,85.194 359.544,84.274 356.244,84.274 356.244,85.194 354.519,85.194 354.519,88.424 352.994,88.424 352.994,87.824 353.794,87.824 353.794,84.724 352.994,84.724 352.994,83.724" style="fill:none;stroke-width:0.050000mm;stroke:black"/>
<polygon points="60.388,81.819 60.388,82.819 59.588,82.819 59.588,85.919 60.388,85.919 60.388,91.719 59.588,91.719 59.588,94.819 60.388,94.819 60.388,95.819 74.388,95.819 74.388,94.819 75.188,94.819 75.188,91.719 74.388,91.719 74.388,85.919 75.188,85.919 75.188,82.819 74.388,82.819 74.388,81.819" style="fill:none;stroke-width:0.050000mm;stroke:black"/>
<polygon points="308.038,81.819 308.038,82.819 307.238,82.819 307.238,85.919 308.038,85.919 308.038,91.719 307.238,91.719 307.238,94.819 308.038,94.819 308.038,95.819 322.038,95.819 322.038,94.819 322.838,94.819 322.838,91.719 322.038,91.719 322.038,85.919 322.838,85.919 322.838,82.819 322.038,82.819 322.038,81.819" style="fill:none;stroke-width:0.050000mm;stroke:black"/>
<polygon points="371.654,89.525 370.957,89.880 370.404,90.433 370.049,91.130 369.927,91.903 370.049,92.675 370.404,93.372 370.957,93.925 371.654,94.280 372.427,94.403 373.199,94.280 373.896,93.925 374.449,93.372 374.804,92.675 374.927,91.903 374.804,91.130 374.449,90.433 373.896,89.880 373.199,89.525 372.427,89.403" style="fill:none;stroke-width:0.050000mm;stroke:black"/>
<polygon points="9.228,89.525 8.531,89.880 7.978,90.433 7.623,91.130 7.500,91.903 7.623,92.675 7.978,93.372 8.531,93.925 9.228,94.280 10.001,94.403 10.773,94.280 11.470,93.925 12.023,93.372 12.378,92.675 12.501,91.903 12.378,91.130 12.023,90.433 11.470,89.880 10.773,89.525 10.001,89.403" style="fill:none;stroke-width:0.050000mm;stroke:black"/>
<polygon points="136.588,79.438 136.588,80.438 135.788,80.438 135.788,83.538 136.588,83.538 136.588,89.338 135.788,89.338 135.788,92.438 136.588,92.438 136.588,93.438 150.588,93.438 150.588,92.438 151.388,92.438 151.388,89.338 150.588,89.338 150.588,83.538 151.388,83.538 151.388,80.438 150.588,80.438 150.588,79.438" style="fill:none;stroke-width:0.050000mm;stroke:black"/>
<polygon points="231.838,79.438 231.838,80.438 231.038,80.438 231.038,83.538 231.838,83.538 231.838,89.338 231.038,89.338 231.038,92.438 231.838,92.438 231.838,93.438 245.838,93.438 245.838,92.438 246.638,92.438 246.638,89.338 245.838,89.338 245.838,83.538 246.638,83.538 246.638,80.438 245.838,80.438 245.838,79.438" style="fill:none;stroke-width:0.050000mm;stroke:black"/>
<polygon points="79.438,77.152 79.438,78.152 78.638,78.152 78.638,81.252 79.438,81.252 79.438,87.052 78.638,87.052 78.638,90.152 79.438,90.152 79.438,91.152 93.438,91.152 93.438,90.152 94.238,90.152 94.238,87.052 93.438,87.052 93.438,81.252 94.238,81.252 94.238,78.152 93.438,78.152 93.438,77.152" style="fill:none;stroke-width:0.050000mm;stroke:black"/>
<polygon points="117.538,77.057 117.538,78.057 116.738,78.057 116.738,81.157 117.538,81.157 117.538,86.957 116.738,86.957 116.738,90.057 117.538,90.057 117.538,91.057 131.538,91.057 131.538,90.057 132.338,90.057 132.338,86.957 131.538,86.957 131.538,81.157 132.338,81.157 132.338,78.057 131.538,78.057 131.538,77.057" style="fill:none;stroke-width:0.050000mm;stroke:black"/>
<polygon points="250.888,77.057 250.888,78.057 250.088,78.057 250.088,81.157 250.888,81.157 250.888,86.957 250.088,86.957 250.088,90.057 250.888,90.057 250.888,91.057 264.888,91.057 264.888,90.057 265.688,90.057 265.688,86.957 264.888,86.957 264.888,81.157 265.688,81.157 265.688,78.057 264.888,78.057 264.888,77.057" style="fill:none;stroke-width:0.050000mm;stroke:black"/>
<polygon points="288.988,77.057 288.988,78.057 288.188,78.057 288.188,81.157 288.988,81.157 288.988,86.957 288.188,86.957 288.188,90.057 288.988,90.057 288.988,91.057 302.988,91.057 302.988,90.057 303.788,90.057 303.788,86.957 302.988,86.957 302.988,81.157 303.788,81.157 303.788,78.057 302.988,78.057 302.988,77.057" style="fill:none;stroke-width:0.050000mm;stroke:black"/>
<polygon points="98.488,74.676 98.488,75.676 97.688,75.676 97.688,78.776 98.488,78.776 98.488,84.576 97.688,84.576 97.688,87.676 98.488,87.676 98.488,88.676 112.488,88.676 112.488,87.676 113.288,87.676 113.288,84.576 112.488,84.576 112.488,78.776 113.288,78.776 113.288,75.676 112.488,75.676 112.488,74.676" style="fill:none;stroke-width:0.050000mm;stroke:black"/>
<polygon points="269.938,74.676 269.938,75.676 269.138,75.676 269.138,78.776 269.938,78.776 269.938,84.576 269.138,84.576 269.138,87.676 269.938,87.676 269.938,88.676 283.938,88.676 283.938,87.676 284.738,87.676 284.738,84.576 283.938,84.576 283.938,78.776 284.738,78.776 284.738,75.676 283.938,75.676 283.938,74.676" style="fill:none;stroke-width:0.050000mm;stroke:black"/>
<polygon points="34.194,64.674 34.194,65.674 33.394,65.674 33.394,68.774 34.194,68.774 34.194,74.574 33.394,74.574 33.394,77.674 34.194,77.674 34.194,78.674 48.194,78.674 48.194,77.674 48.994,77.674 48.994,74.574 48.194,74.574 48.194,68.774 48.994,68.774 48.994,65.674 48.194,65.674 48.194,64.674" style="fill:none;stroke-width:0.050000mm;stroke:black"/>
<polygon points="334.232,64.674 334.232,65.674 333.432,65.674 333.432,68.774 334.232,68.774 334.232,74.574 333.432,74.574 333.432,77.674 334.232,77.674 334.232,78.674 348.232,78.674 348.232,77.674 349.032,77.674 349.032,74.574 348.232,74.574 348.232,68.774 349.032,68.774 349.032,65.674 348.232,65.674 348.232,64.674" style="fill:none;stroke-width:0.050000mm;stroke:black"/>
<polygon points="60.388,62.769 60.388,63.769 59.588,63.769 59.588,66.869 60.388,66.869 60.388,72.669 59.588,72.669 59.588,75.769 60.388,75.769 60.388,76.769 74.388,76.769 74.388,75.769 75.188,75.769 75.188,72.669 74.388,72.669 74.388,66.869 75.188,66.869 75.188,63.769 74.388,63.769 74.388,62.769" style="fill:none;stroke-width:0.050000mm;stroke:black"/>
<polygon points="308.038,62.769 308.038,63.769 307.238,63.769 307.238,66.869 308.038,66.869 308.038,72.669 307.238,72.669 307.238,75.769 308.038,75.769 308.038,76.769 322.038,76.769 322.038,75.769 322.838,75.769 322.838,72.669 322.038,72.669 322.038,66.869 322.838,66.869 322.838,63.769 322.038,63.769 322.038,62.769" style="fill:none;stroke-width:0.050000mm;stroke:black"/>
<polygon points="155.638,62.293 155.638,63.293 154.838,63.293 154.838,66.393 155.638,66.393 155.638,72.193 154.838,72.193 154.838,75.293 155.638,75.293 155.638,76.293 169.638,76.293 169.638,75.293 170.438,75.293 170.438,72.193 169.638,72.193 169.638,66.393 170.438,66.393 170.438,63.293 169.638,63.293 169.638,62.293" style="fill:none;stroke-width:0.050000mm;stroke:black"/>
<polygon points="212.788,62.293 212.788,63.293 211.988,63.293 211.988,66.393 212.788,66.393 212.788,72.193 211.988,72.193 211.988,75.293 212.788,75.293 212.788,76.293 226.788,76.293 226.788,75.293 227.588,75.293 227.588,72.193 226.788,72.193 226.788,66.393 227.588,66.393 227.588,63.293 226.788,63.293 226.788,62.293" style="fill:none;stroke-width:0.050000mm;stroke:black"/>
<polygon points="136.588,60.388 136.588,61.388 135.788,61.388 135.788,64.487 136.588,64.487 136.588,70.288 135.788,70.288 135.788,73.388 136.588,73.388 136.588,74.388 150.588,74.388 150.588,73.388 151.388,73.388 151.388,70.288 150.588,70.288 150.588,64.487 151.388,64.487 151.388,61.388 150.588,61.388 150.588,60.388" style="fill:none;stroke-width:0.050000mm;stroke:black"/>
<polygon points="231.838,60.388 231.838,61.388 231.038,61.388 231.038,64.487 231.838,64.487 231.838,70.288 231.038,70.288 231.038,73.388 231.838,73.388 231.838,74.388 245.838,74.388 245.838,73.388 246.638,73.388 246.638,70.288 245.838,70.288 245.838,64.487 246.638,64.487 246.638,61.388 245.838,61.388 245.838,60.388" style="fill:none;stroke-width:0.050000mm;stroke:black"/>
<polygon points="250.888,58.102 250.888,59.102 250.088,59.102 250.088,62.202 250.888,62.202 250.888,68.002 250.088,68.002 250.088,71.102 250.888,71.102 250.888,72.102 264.888,72.102 264.888,71.102 265.688,71.102 265.688,68.002 264.888,68.002 264.888,62.202 265.688,62.202 265.688,59.102 264.888,59.102 264.888,58.102" style="fill:none;stroke-width:0.050000mm;stroke:black"/>
<polygon points="79.438,58.007 79.438,59.007 78.638,59.007 78.638,62.107 79.438,62.107 79.438,67.907 78.638,67.907 78.638,71.007 79.438,71.007 79.438,72.007 93.438,72.007 93.438,71.007 94.238,71.007 94.238,67.907 93.438,67.907 93.438,62.107 94.238,62.107 94.238,59.007 93.438,59.007 93.438,58.007" style="fill:none;stroke-width:0.050000mm;stroke:black"/>
<polygon points="117.538,58.007 117.538,59.007 116.738,59.007 116.738,62.107 117.538,62.107 117.538,67.907 116.738,67.907 116.738,71.007 117.538,71.007 117.538,72.007 131.538,72.007 131.538,71.007 132.338,71.007 132.338,67.907 131.538,67.907 131.538,62.107 132.338,62.107 132.338,59.007 131.538,59.007 131.538,58.007" style="fill:none;stroke-width:0.050000mm;stroke:black"/>
<polygon points="288.988,58.007 288.988,59.007 288.188,59.007 288.188,62.107 288.988,62.107 288.988,67.907 288.188,67.907 288.188,71.007 288.988,71.007 288.988,72.007 302.988,72.007 302.988,71.007 303.788,71.007 303.788,67.907 302.988,67.907 302.988,62.107 303.788,62.107 303.788,59.007 302.988,59.007 302.988,58.007" style="fill:none;stroke-width:0.050000mm;stroke:black"/>
<polygon points="98.488,55.626 98.488,56.626 97.688,56.626 97.688,59.726 98.488,59.726 98.488,65.526 97.688,65.526 97.688,68.626 98.488,68.626 98.488,69.626 112.488,69.626 112.488,68.626 113.288,68.626 113.288,65.526 112.488,65.526 112.488,59.726 113.288,59.726 113.288,56.626 112.488,56.626 112.488,55.626" style="fill:none;stroke-width:0.050000mm;stroke:black"/>
<polygon points="269.938,55.626 269.938,56.626 269.138,56.626 269.138,59.726 269.938,59.726 269.938,65.526 269.138,65.526 269.138,68.626 269.938,68.626 269.938,69.626 283.938,69.626 283.938,68.626 284.738,68.626 284.738,65.526 283.938,65.526 283.938,59.726 284.738,59.726 284.738,56.626 283.938,56.626 283.938,55.626" style="fill:none;stroke-width:0.050000mm;stroke:black"/>
<polygon points="371.654,62.224 370.957,62.579 370.404,63.133 370.049,63.829 369.927,64.602 370.049,65.374 370.404,66.071 370.957,66.625 371.654,66.980 372.427,67.102 373.199,66.980 373.896,66.625 374.449,66.071 374.804,65.374 374.927,64.602 374.804,63.829 374.449,63.133 373.896,62.579 373.199,62.224 372.427,62.102" style="fill:none;stroke-width:0.050000mm;stroke:black"/>
<polygon points="9.228,62.224 8.531,62.579 7.978,63.133 7.623,63.829 7.500,64.602 7.623,65.374 7.978,66.071 8.531,66.625 9.228,66.980 10.001,67.102 10.773,66.980 11.470,66.625 12.023,66.071 12.378,65.374 12.501,64.602 12.378,63.829 12.023,63.133 11.470,62.579 10.773,62.224 10.001,62.102" style="fill:none;stroke-width:0.050000mm;stroke:black"/>
<polygon points="36.576,45.624 36.576,46.624 35.776,46.624 35.776,49.724 36.576,49.724 36.576,55.524 35.776,55.524 35.776,58.624 36.576,58.624 36.576,59.624 50.576,59.624 50.576,58.624 51.376,58.624 51.376,55.524 50.576,55.524 50.576,49.724 51.376,49.724 51.376,46.624 50.576,46.624 50.576,45.624" style="fill:none;stroke-width:0.050000mm;stroke:black"/>
<polygon points="331.851,45.624 331.851,46.624 331.051,46.624 331.051,49.724 331.851,49.724 331.851,55.524 331.051,55.524 331.051,58.624 331.851,58.624 331.851,59.624 345.851,59.624 345.851,58.624 346.651,58.624 346.651,55.524 345.851,55.524 345.851,49.724 346.651,49.724 346.651,46.624 345.851,46.624 345.851,45.624" style="fill:none;stroke-width:0.050000mm;stroke:black"/>
<polygon points="60.388,43.719 60.388,44.719 59.588,44.719 59.588,47.819 60.388,47.819 60.388,53.619 59.588,53.619 59.588,56.719 60.388,56.719 60.388,57.719 74.388,57.719 74.388,56.719 75.188,56.719 75.188,53.619 74.388,53.619 74.388,47.819 75.188,47.819 75.188,44.719 74.388,44.719 74.388,43.719" style="fill:none;stroke-width:0.050000mm;stroke:black"/>
<polygon points="308.038,43.719 308.038,44.719 307.238,44.719 307.238,47.819 308.038,47.819 308.038,53.619 307.238,53.619 307.238,56.719 308.038,56.719 308.038,57.719 322.038,57.719 322.038,56.719 322.838,56.719 322.838,53.619 322.038,53.619 322.038,47.819 322.838,47.819 322.838,44.719 322.038,44.719 322.038,43.719" style="fill:none;stroke-width:0.050000mm;stroke:black"/>
<polygon points="155.638,43.243 155.638,44.243 154.838,44.243 154.838,47.343 155.638,47.343 155.638,53.143 154.838,53.143 154.838,56.243 155.638,56.243 155.638,57.243 169.638,57.243 169.638,56.243 170.438,56.243 170.438,53.143 169.638,53.143 169.638,47.343 170.438,47.343 170.438,44.243 169.638,44.243 169.638,43.243" style="fill:none;stroke-width:0.050000mm;stroke:black"/>
<polygon points="212.788,43.243 212.788,44.243 211.988,44.243 211.988,47.343 212.788,47.343 212.788,53.143 211.988,53.143 211.988,56.243 212.788,56.243 212.788,57.243 226.788,57.243 226.788,56.243 227.588,56.243 227.588,53.143 226.788,53.143 226.788,47.343 227.588,47.343 227.588,44.243 226.788,44.243 226.788,43.243" style="fill:none;stroke-width:0.050000mm;stroke:black"/>
<polygon points="136.588,41.338 136.588,42.338 135.788,42.338 135.788,45.438 136.588,45.438 136.588,51.238 135.788,51.238 135.788,54.338 136.588,54.338 136.588,55.338 150.588,55.338 150.588,54.338 151.388,54.338 151.388,51.238 150.588,51.238 150.588,45.438 151.388,45.438 151.388,42.338 150.588,42.338 150.588,41.338" style="fill:none;stroke-width:0.050000mm;stroke:black"/>
<polygon points="231.838,41.338 231.838,42.338 231.038,42.338 231.038,45.438 231.838,45.438 231.838,51.238 231.038,51.238 231.038,54.338 231.838,54.338 231.838,55.338 245.838,55.338 245.838,54.338 246.638,54.338 246.638,51.238 245.838,51.238 245.838,45.438 246.638,45.438 246.638,42.338 245.838,42.338 245.838,41.338" style="fill:none;stroke-width:0.050000mm;stroke:black"/>
<polygon points="79.438,38.957 79.438,39.957 78.638,39.957 78.638,43.057 79.438,43.057 79.438,48.857 78.638,48.857 78.638,51.957 79.438,51.957 79.438,52.957 93.438,52.957 93.438,51.957 94.238,51.957 94.238,48.857 93.438,48.857 93.438,43.057 94.238,43.057 94.238,39.957 93.438,39.957 93.438,38.957" style="fill:none;stroke-width:0.050000mm;stroke:black"/>
<polygon points="117.538,38.957 117.538,39.957 116.738,39.957 116.738,43.057 117.538,43.057 117.538,48.857 116.738,48.857 116.738,51.957 117.538,51.957 117.538,52.957 131.538,52.957 131.538,51.957 132.338,51.957 132.338,48.857 131.538,48.857 131.538,43.057 132.338,43.057 132.338,39.957 131.538,39.957 131.538,38.957" style="fill:none;stroke-width:0.050000mm;stroke:black"/>
<polygon points="250.888,38.957 250.888,39.957 250.088,39.957 250.088,43.057 250.888,43.057 250.888,48.857 250.088,48.857 250.088,51.957 250.888,51.957 250.888,52.957 264.888,52.957 264.888,51.957 265.688,51.957 265.688,48.857 264.888,48.857 264.888,43.057 265.688,43.057 265.688,39.957 264.888,39.957 264.888,38.957" style="fill:none;stroke-width:0.050000mm;stroke:black"/>
<polygon points="288.988,38.957 288.988,39.957 288.188,39.957 288.188,43.057 288.988,43.057 288.988,48.857 288.188,48.857 288.188,51.957 288.988,51.957 288.988,52.957 302.988,52.957 302.988,51.957 303.788,51.957 303.788,48.857 302.988,48.857 302.988,43.057 303.788,43.057 303.788,39.957 302.988,39.957 302.988,38.957" style="fill:none;stroke-width:0.050000mm;stroke:black"/>
<polygon points="98.488,36.576 98.488,37.576 97.688,37.576 97.688,40.676 98.488,40.676 98.488,46.476 97.688,46.476 97.688,49.576 98.488,49.576 98.488,50.576 112.488,50.576 112.488,49.576 113.288,49.576 113.288,46.476 112.488,46.476 112.488,40.676 113.288,40.676 113.288,37.576 112.488,37.576 112.488,36.576" style="fill:none;stroke-width:0.050000mm;stroke:black"/>
<polygon points="269.938,36.576 269.938,37.576 269.138,37.576 269.138,40.676 269.938,40.676 269.938,46.476 269.138,46.476 269.138,49.576 269.938,49.576 269.938,50.576 283.938,50.576 283.938,49.576 284.738,49.576 284.738,46.476 283.938,46.476 283.938,40.676 284.738,40.676 284.738,37.576 283.938,37.576 283.938,36.576" style="fill:none;stroke-width:0.050000mm;stroke:black"/>
<polygon points="22.288,26.574 22.288,27.574 21.488,27.574 21.488,30.674 22.288,30.674 22.288,36.474 21.488,36.474 21.488,39.574 22.288,39.574 22.288,40.574 36.288,40.574 36.288,39.574 37.088,39.574 37.088,36.474 36.288,36.474 36.288,30.674 37.088,30.674 37.088,27.574 36.288,27.574 36.288,26.574" style="fill:none;stroke-width:0.050000mm;stroke:black"/>
<polygon points="41.338,26.574 41.338,27.574 40.538,27.574 40.538,30.674 41.338,30.674 41.338,36.474 40.538,36.474 40.538,39.574 41.338,39.574 41.338,40.574 55.338,40.574 55.338,39.574 56.138,39.574 56.138,36.474 55.338,36.474 55.338,30.674 56.138,30.674 56.138,27.574 55.338,27.574 55.338,26.574" style="fill:none;stroke-width:0.050000mm;stroke:black"/>
<polygon points="327.088,26.574 327.088,27.574 326.288,27.574 326.288,30.674 327.088,30.674 327.088,36.474 326.288,36.474 326.288,39.574 327.088,39.574 327.088,40.574 341.088,40.574 341.088,39.574 341.888,39.574 341.888,36.474 341.088,36.474 341.088,30.674 341.888,30.674 341.888,27.574 341.088,27.574 341.088,26.574" style="fill:none;stroke-width:0.050000mm;stroke:black"/>
<polygon points="346.138,26.574 346.138,27.574 345.338,27.574 345.338,30.674 346.138,30.674 346.138,36.474 345.338,36.474 345.338,39.574 346.138,39.574 346.138,40.574 360.138,40.574 360.138,39.574 360.938,39.574 360.938,36.474 360.138,36.474 360.138,30.674 360.938,30.674 360.938,27.574 360.138,27.574 360.138,26.574" style="fill:none;stroke-width:0.050000mm;stroke:black"/>
<polygon points="371.654,34.924 370.957,35.279 370.404,35.832 370.049,36.529 369.927,37.301 370.049,38.074 370.404,38.771 370.957,39.324 371.654,39.679 372.427,39.801 373.199,39.679 373.896,39.324 374.449,38.771 374.804,38.074 374.927,37.301 374.804,36.529 374.449,35.832 373.896,35.279 373.199,34.924 372.427,34.801" style="fill:none;stroke-width:0.050000mm;stroke:black"/>
<polygon points="9.228,34.924 8.531,35.279 7.978,35.832 7.623,36.529 7.500,37.301 7.623,38.074 7.978,38.771 8.531,39.324 9.228,39.679 10.001,39.801 10.773,39.679 11.470,39.324 12.023,38.771 12.378,38.074 12.501,37.301 12.378,36.529 12.023,35.832 11.470,35.279 10.773,34.924 10.001,34.801" style="fill:none;stroke-width:0.050000mm;stroke:black"/>
<polygon points="60.388,24.669 60.388,25.669 59.588,25.669 59.588,28.769 60.388,28.769 60.388,34.569 59.588,34.569 59.588,37.669 60.388,37.669 60.388,38.669 74.388,38.669 74.388,37.669 75.188,37.669 75.188,34.569 74.388,34.569 74.388,28.769 75.188,28.769 75.188,25.669 74.388,25.669 74.388,24.669" style="fill:none;stroke-width:0.050000mm;stroke:black"/>
<polygon points="308.038,24.669 308.038,25.669 307.238,25.669 307.238,28.769 308.038,28.769 308.038,34.569 307.238,34.569 307.238,37.669 308.038,37.669 308.038,38.669 322.038,38.669 322.038,37.669 322.838,37.669 322.838,34.569 322.038,34.569 322.038,28.769 322.838,28.769 322.838,25.669 322.038,25.669 322.038,24.669" style="fill:none;stroke-width:0.050000mm;stroke:black"/>
<polygon points="155.638,24.193 155.638,25.193 154.838,25.193 154.838,28.293 155.638,28.293 155.638,34.093 154.838,34.093 154.838,37.193 155.638,37.193 155.638,38.193 169.638,38.193 169.638,37.193 170.438,37.193 170.438,34.093 169.638,34.093 169.638,28.293 170.438,28.293 170.438,25.193 169.638,25.193 169.638,24.193" style="fill:none;stroke-width:0.050000mm;stroke:black"/>
<polygon points="212.788,24.193 212.788,25.193 211.988,25.193 211.988,28.293 212.788,28.293 212.788,34.093 211.988,34.093 211.988,37.193 212.788,37.193 212.788,38.193 226.788,38.193 226.788,37.193 227.588,37.193 227.588,34.093 226.788,34.093 226.788,28.293 227.588,28.293 227.588,25.193 226.788,25.193 226.788,24.193" style="fill:none;stroke-width:0.050000mm;stroke:black"/>
<polygon points="136.588,22.288 136.588,23.288 135.788,23.288 135.788,26.388 136.588,26.388 136.588,32.187 135.788,32.187 135.788,35.288 136.588,35.288 136.588,36.288 150.588,36.288 150.588,35.288 151.388,35.288 151.388,32.187 150.588,32.187 150.588,26.388 151.388,26.388 151.388,23.288 150.588,23.288 150.588,22.288" style="fill:none;stroke-width:0.050000mm;stroke:black"/>
<polygon points="231.838,22.288 231.838,23.288 231.038,23.288 231.038,26.388 231.838,26.388 231.838,32.187 231.038,32.187 231.038,35.288 231.838,35.288 231.838,36.288 245.838,36.288 245.838,35.288 246.638,35.288 246.638,32.187 245.838,32.187 245.838,26.388 246.638,26.388 246.638,23.288 245.838,23.288 245.838,22.288" style="fill:none;stroke-width:0.050000mm;stroke:black"/>
<polygon points="79.438,19.907 79.438,20.907 78.638,20.907 78.638,24.007 79.438,24.007 79.438,29.807 78.638,29.807 78.638,32.907 79.438,32.907 79.438,33.907 93.438,33.907 93.438,32.907 94.238,32.907 94.238,29.807 93.438,29.807 93.438,24.007 94.238,24.007 94.238,20.907 93.438,20.907 93.438,19.907" style="fill:none;stroke-width:0.050000mm;stroke:black"/>
<polygon points="117.538,19.907 117.538,20.907 116.738,20.907 116.738,24.007 117.538,24.007 117.538,29.807 116.738,29.807 116.738,32.907 117.538,32.907 117.538,33.907 131.538,33.907 131.538,32.907 132.338,32.907 132.338,29.807 131.538,29.807 131.538,24.007 132.338,24.007 132.338,20.907 131.538,20.907 131.538,19.907" style="fill:none;stroke-width:0.050000mm;stroke:black"/>
<polygon points="250.888,19.907 250.888,20.907 250.088,20.907 250.088,24.007 250.888,24.007 250.888,29.807 250.088,29.807 250.088,32.907 250.888,32.907 250.888,33.907 264.888,33.907 264.888,32.907 265.688,32.907 265.688,29.807 264.888,29.807 264.888,24.007 265.688,24.007 265.688,20.907 264.888,20.907 264.888,19.907" style="fill:none;stroke-width:0.050000mm;stroke:black"/>
<polygon points="288.988,19.907 288.988,20.907 288.188,20.907 288.188,24.007 288.988,24.007 288.988,29.807 288.188,29.807 288.188,32.907 288.988,32.907 288.988,33.907 302.988,33.907 302.988,32.907 303.788,32.907 303.788,29.807 302.988,29.807 302.988,24.007 303.788,24.007 303.788,20.907 302.988,20.907 302.988,19.907" style="fill:none;stroke-width:0.050000mm;stroke:black"/>
<polygon points="98.488,17.526 98.488,18.526 97.688,18.526 97.688,21.626 98.488,21.626 98.488,27.425 97.688,27.425 97.688,30.526 98.488,30.526 98.488,31.526 112.488,31.526 112.488,30.526 113.288,30.526 113.288,27.425 112.488,27.425 112.488,21.626 113.288,21.626 113.288,18.526 112.488,18.526 112.488,17.526" style="fill:none;stroke-width:0.050000mm;stroke:black"/>
<polygon points="269.938,17.526 269.938,18.526 269.138,18.526 269.138,21.626 269.938,21.626 269.938,27.425 269.138,27.425 269.138,30.526 269.938,30.526 269.938,31.526 283.938,31.526 283.938,30.526 284.738,30.526 284.738,27.425 283.938,27.425 283.938,21.626 284.738,21.626 284.738,18.526 283.938,18.526 283.938,17.526" style="fill:none;stroke-width:0.050000mm;stroke:black"/>
<polygon points="42.176,7.623 41.479,7.978 40.926,8.531 40.571,9.228 40.448,10.001 40.571,10.773 40.926,11.470 41.479,12.023 42.176,12.378 42.948,12.501 43.721,12.378 44.418,12.023 44.971,11.470 45.326,10.773 45.448,10.001 45.326,9.228 44.971,8.531 44.418,7.978 43.721,7.623 42.948,7.501" style="fill:none;stroke-width:0.050000mm;stroke:black"/>
<polygon points="75.124,7.623 74.427,7.978 73.874,8.531 73.518,9.228 73.396,10.001 73.518,10.773 73.874,11.470 74.427,12.023 75.124,12.378 75.896,12.501 76.669,12.378 77.366,12.023 77.919,11.470 78.274,10.773 78.396,10.001 78.274,9.228 77.919,8.531 77.366,7.978 76.669,7.623 75.896,7.501" style="fill:none;stroke-width:0.050000mm;stroke:black"/>
<polygon points="108.071,7.623 107.374,7.978 106.821,8.531 106.466,9.228 106.344,10.001 106.466,10.773 106.821,11.470 107.374,12.023 108.071,12.378 108.844,12.501 109.616,12.378 110.313,12.023 110.866,11.470 111.222,10.773 111.344,10.001 111.222,9.228 110.866,8.531 110.313,7.978 109.616,7.623 108.844,7.501" style="fill:none;stroke-width:0.050000mm;stroke:black"/>
<polygon points="141.019,7.623 140.322,7.978 139.769,8.531 139.414,9.228 139.292,10.001 139.414,10.773 139.769,11.470 140.322,12.023 141.019,12.378 141.792,12.501 142.564,12.378 143.261,12.023 143.814,11.470 144.169,10.773 144.292,10.001 144.169,9.228 143.814,8.531 143.261,7.978 142.564,7.623 141.792,7.501" style="fill:none;stroke-width:0.050000mm;stroke:black"/>
<polygon points="173.967,7.623 173.270,7.978 172.717,8.531 172.362,9.228 172.240,10.001 172.362,10.773 172.717,11.470 173.270,12.023 173.967,12.378 174.740,12.501 175.512,12.378 176.209,12.023 176.762,11.470 177.117,10.773 177.240,10.001 177.117,9.228 176.762,8.531 176.209,7.978 175.512,7.623 174.740,7.501" style="fill:none;stroke-width:0.050000mm;stroke:black"/>
<polygon points="206.915,7.623 206.218,7.978 205.665,8.531 205.310,9.228 205.187,10.001 205.310,10.773 205.665,11.470 206.218,12.023 206.915,12.378 207.687,12.501 208.460,12.378 209.157,12.023 209.710,11.470 210.065,10.773 210.187,10.001 210.065,9.228 209.710,8.531 209.157,7.978 208.460,7.623 207.687,7.501" style="fill:none;stroke-width:0.050000mm;stroke:black"/>
<polygon points="239.863,7.623 239.166,7.978 238.613,8.531 238.258,9.228 238.135,10.001 238.258,10.773 238.613,11.470 239.166,12.023 239.863,12.378 240.635,12.501 241.408,12.378 242.105,12.023 242.658,11.470 243.013,10.773 243.135,10.001 243.013,9.228 242.658,8.531 242.105,7.978 241.408,7.623 240.635,7.501" style="fill:none;stroke-width:0.050000mm;stroke:black"/>
<polygon points="272.811,7.623 272.114,7.978 271.561,8.531 271.205,9.228 271.083,10.001 271.205,10.773 271.561,11.470 272.114,12.023 272.811,12.378 273.583,12.501 274.356,12.378 275.053,12.023 275.606,11.470 275.961,10.773 276.083,10.001 275.961,9.228 275.606,8.531 275.053,7.978 274.356,7.623 273.583,7.501" style="fill:none;stroke-width:0.050000mm;stroke:black"/>
<polygon points="305.758,7.623 305.061,7.978 304.508,8.531 304.153,9.228 304.031,10.001 304.153,10.773 304.508,11.470 305.061,12.023 305.758,12.378 306.531,12.501 307.303,12.378 308.000,12.023 308.553,11.470 308.909,10.773 309.031,10.001 308.909,9.228 308.553,8.531 308.000,7.978 307.303,7.623 306.531,7.501" style="fill:none;stroke-width:0.050000mm;stroke:black"/>
<polygon points="338.706,7.623 338.009,7.978 337.456,8.531 337.101,9.228 336.979,10.001 337.101,10.773 337.456,11.470 338.009,12.023 338.706,12.378 339.479,12.501 340.251,12.378 340.948,12.023 341.501,11.470 341.856,10.773 341.979,10.001 341.856,9.228 341.501,8.531 340.948,7.978 340.251,7.623 339.479,7.501" style="fill:none;stroke-width:0.050000mm;stroke:black"/>
<polygon points="371.654,7.623 370.957,7.978 370.404,8.531 370.049,9.228 369.927,10.001 370.049,10.773 370.404,11.470 370.957,12.023 371.654,12.378 372.427,12.501 373.199,12.378 373.896,12.023 374.449,11.470 374.804,10.773 374.927,10.001 374.804,9.228 374.449,8.531 373.896,7.978 373.199,7.623 372.427,7.501" style="fill:none;stroke-width:0.050000mm;stroke:black"/>
<polygon points="9.228,7.623 8.531,7.978 7.978,8.531 7.623,9.228 7.500,10.001 7.623,10.773 7.978,11.470 8.531,12.023 9.228,12.378 10.001,12.501 10.773,12.378 11.470,12.023 12.023,11.470 12.378,10.773 12.501,10.001 12.378,9.228 12.023,8.531 11.470,7.978 10.773,7.623 10.001,7.501" style="fill:none;stroke-width:0.050000mm;stroke:black"/>
</svg>
