<?xml version="1.0"?>
<!-- Generated by SVGo -->
<svg width="382.427mm" height="156.504mm"
     viewBox="0.000 0.000 382.427 156.504"
     xmlns="http://www.w3.org/2000/svg" 
     xmlns:xlink="http://www.w3.org/1999/xlink">
<polygon points="372.427,5.001 372.819,5.016 373.209,5.062 373.594,5.139 373.972,5.245 374.340,5.381 374.696,5.545 375.039,5.737 375.365,5.955 375.674,6.198 375.962,6.465 376.229,6.753 376.472,7.062 376.690,7.388 376.882,7.731 377.046,8.087 377.182,8.455 377.288,8.833 377.365,9.218 377.411,9.608 377.426,10.001 377.427,146.504 377.411,146.897 377.365,147.286 377.288,147.671 377.182,148.049 377.046,148.418 376.882,148.774 376.690,149.117 376.472,149.443 376.229,149.751 375.962,150.040 375.674,150.306 375.365,150.549 375.039,150.767 374.696,150.959 374.340,151.124 373.972,151.260 373.594,151.366 373.209,151.443 372.819,151.489 372.427,151.504 10.001,151.504 9.608,151.489 9.218,151.443 8.833,151.366 8.455,151.260 8.087,151.124 7.731,150.959 7.388,150.767 7.062,150.549 6.753,150.306 6.465,150.040 6.198,149.751 5.955,149.443 5.737,149.117 5.545,148.774 5.381,148.418 5.245,148.049 5.139,147.671 5.062,147.286 5.016,146.897 5.000,146.504 5.001,10.001 5.016,9.608 5.062,9.218 5.139,8.833 5.245,8.455 5.381,8.087 5.545,7.731 5.737,7.388 5.955,7.062 6.198,6.753 6.465,6.465 6.753,6.198 7.062,5.955 7.388,5.737 7.731,5.545 8.087,5.381 8.455,5.245 8.833,5.139 9.218,5.062 9.608,5.016 10.001,5.000" style="fill:none;stroke-width:0.050000mm;stroke:black"/>
<polygon points="371.654,144.127 370.957,144.482 370.404,145.035 370.049,145.732 369.927,146.504 370.049,147.277 370.404,147.974 370.957,148.527 371.654,148.882 372.427,149.004 373.199,148.882 373.896,148.527 374.449,147.974 374.804,147.277 374.927,146.504 374.804,145.732 374.449,145.035 373.896,144.482 373.199,144.127 372.427,144.004" style="fill:none;stroke-width:0.050000mm;stroke:black"/>
<polygon points="338.706,144.127 338.009,144.482 337.456,145.035 337.101,145.732 336.979,146.504 337.101,147.277 337.456,147.974 338.009,148.527 338.706,148.882 339.479,149.004 340.251,148.882 340.948,148.527 341.501,147.974 341.856,147.277 341.979,146.504 341.856,145.732 341.501,145.035 340.948,144.482 340.251,144.127 339.479,144.004" style="fill:none;stroke-width:0.050000mm;stroke:black"/>
<polygon points="305.758,144.127 305.061,144.482 304.508,145.035 304.153,145.732 304.031,146.504 304.153,147.277 304.508,147.974 305.061,148.527 305.758,148.882 306.531,149.004 307.303,148.882 308.000,148.527 308.553,147.974 308.909,147.277 309.031,146.504 308.909,145.732 308.553,145.035 308.000,144.482 307.303,144.127 306.531,144.004" style="fill:none;stroke-width:0.050000mm;stroke:black"/>
<polygon points="272.811,144.127 272.114,144.482 271.561,145.035 271.205,145.732 271.083,146.504 271.205,147.277 271.561,147.974 272.114,148.527 272.811,148.882 273.583,149.004 274.356,148.882 275.053,148.527 275.606,147.974 275.961,147.277 276.083,146.504 275.961,145.732 275.606,145.035 275.053,144.482 274.356,144.127 273.583,144.004" style="fill:none;stroke-width:0.050000mm;stroke:black"/>
<polygon points="239.863,144.127 239.166,144.482 238.613,145.035 238.258,145.732 238.135,146.504 238.258,147.277 238.613,147.974 239.166,148.527 239.863,148.882 240.635,149.004 241.408,148.882 242.105,148.527 242.658,147.974 243.013,147.277 243.135,146.504 243.013,145.732 242.658,145.035 242.105,144.482 241.408,144.127 240.635,144.004" style="fill:none;stroke-width:0.050000mm;stroke:black"/>
<polygon points="206.915,144.127 206.218,144.482 205.665,145.035 205.310,145.732 205.187,146.504 205.310,147.277 205.665,147.974 206.218,148.527 206.915,148.882 207.687,149.004 208.460,148.882 209.157,148.527 209.710,147.974 210.065,147.277 210.187,146.504 210.065,145.732 209.710,145.035 209.157,144.482 208.460,144.127 207.687,144.004" style="fill:none;stroke-width:0.050000mm;stroke:black"/>
<polygon points="173.967,144.127 173.270,144.482 172.717,145.035 172.362,145.732 172.240,146.504 172.362,147.277 172.717,147.974 173.270,148.527 173.967,148.882 174.740,149.004 175.512,148.882 176.209,148.527 176.762,147.974 177.117,147.277 177.240,146.504 177.117,145.732 176.762,145.035 176.209,144.482 175.512,144.127 174.740,144.004" style="fill:none;stroke-width:0.050000mm;stroke:black"/>
<polygon points="141.019,144.127 140.322,144.482 139.769,145.035 139.414,145.732 139.292,146.504 139.414,147.277 139.769,147.974 140.322,148.527 141.019,148.882 141.792,149.004 142.564,148.882 143.261,148.527 143.814,147.974 144.169,147.277 144.292,146.504 144.169,145.732 143.814,145.035 143.261,144.482 142.564,144.127 141.792,144.004" style="fill:none;stroke-width:0.050000mm;stroke:black"/>
<polygon points="108.071,144.127 107.374,144.482 106.821,145.035 106.466,145.732 106.344,146.504 106.466,147.277 106.821,147.974 107.374,148.527 108.071,148.882 108.844,149.004 109.616,148.882 110.313,148.527 110.866,147.974 111.222,147.277 111.344,146.504 111.222,145.732 110.866,145.035 110.313,144.482 109.616,144.127 108.844,144.004" style="fill:none;stroke-width:0.050000mm;stroke:black"/>
<polygon points="75.124,144.127 74.427,144.482 73.874,145.035 73.518,145.732 73.396,146.504 73.518,147.277 73.874,147.974 74.427,148.527 75.124,148.882 75.896,149.004 76.669,148.882 77.366,148.527 77.919,147.974 78.274,147.277 78.396,146.504 78.274,145.732 77.919,145.035 77.366,144.482 76.669,144.127 75.896,144.004" style="fill:none;stroke-width:0.050000mm;stroke:black"/>
<polygon points="42.176,144.127 41.479,144.482 40.926,145.035 40.571,145.732 40.448,146.504 40.571,147.277 40.926,147.974 41.479,148.527 42.176,148.882 42.948,149.004 43.721,148.882 44.418,148.527 44.971,147.974 45.326,147.277 45.448,146.504 45.326,145.732 44.971,145.035 44.418,144.482 43.721,144.127 42.948,144.004" style="fill:none;stroke-width:0.050000mm;stroke:black"/>
<polygon points="9.228,144.127 8.531,144.482 7.978,145.035 7.623,145.732 7.500,146.504 7.623,147.277 7.978,147.974 8.531,148.527 9.228,148.882 10.001,149.004 10.773,148.882 11.470,148.527 12.023,147.974 12.378,147.277 12.501,146.504 12.378,145.732 12.023,145.035 11.470,144.482 10.773,144.127 10.001,144.004" style="fill:none;stroke-width:0.050000mm;stroke:black"/>
<polygon points="134.529,131.978 151.028,141.504 158.172,129.131 174.670,138.656 188.958,113.907 172.461,104.382 177.223,96.134 160.723,86.608" style="fill:none;stroke-width:0.050000mm;stroke:black"/>
<polygon points="205.374,101.534 207.755,105.659 191.257,115.184 205.546,139.932 222.043,130.407 226.806,138.656 243.306,129.129 221.873,92.008" style="fill:none;stroke-width:0.050000mm;stroke:black"/>
<polygon points="235.521,106.126 245.047,122.625 265.671,110.718 256.145,94.218" style="fill:none;stroke-width:0.050000mm;stroke:black"/>
<polygon points="116.194,110.394 136.818,122.302 146.344,105.802 125.720,93.895" style="fill:none;stroke-width:0.050000mm;stroke:black"/>
<polygon points="371.654,116.826 370.957,117.181 370.404,117.734 370.049,118.431 369.927,119.203 370.049,119.976 370.404,120.673 370.957,121.226 371.654,121.581 372.427,121.703 373.199,121.581 373.896,121.226 374.449,120.673 374.804,119.976 374.927,119.203 374.804,118.431 374.449,117.734 373.896,117.181 373.199,116.826 372.427,116.703" style="fill:none;stroke-width:0.050000mm;stroke:black"/>
<polygon points="9.228,116.826 8.531,117.181 7.978,117.734 7.623,118.431 7.500,119.203 7.623,119.976 7.978,120.673 8.531,121.226 9.228,121.581 10.001,121.703 10.773,121.581 11.470,121.226 12.023,120.673 12.378,119.976 12.501,119.203 12.378,118.431 12.023,117.734 11.470,117.181 10.773,116.826 10.001,116.703" style="fill:none;stroke-width:0.050000mm;stroke:black"/>
<polygon points="95.962,14.999 95.962,17.381 76.912,17.381 76.912,22.143 57.862,22.143 57.862,24.048 19.762,24.048 19.762,43.100 29.287,43.100 29.287,62.148 24.524,62.148 24.524,81.198 15.000,81.198 15.000,100.250 34.050,100.250 34.050,119.300 57.864,119.300 57.864,117.395 76.914,117.395 76.914,112.633 95.964,112.633 95.964,110.251 115.014,110.251 115.014,93.583 134.062,93.583 134.062,95.964 153.114,95.964 153.114,78.819 172.164,78.819 172.164,21.667 153.114,21.667 153.114,19.762 134.064,19.762 134.064,17.381 115.014,17.381 115.014,14.999" style="fill:none;stroke-width:0.050000mm;stroke:black"/>
<polygon points="267.412,14.999 267.412,17.381 248.362,17.381 248.362,19.762 229.312,19.762 229.312,21.667 210.262,21.667 210.262,78.819 229.312,78.819 229.312,95.964 248.364,95.964 248.364,93.583 267.412,93.583 267.412,110.251 286.462,110.251 286.462,112.633 305.512,112.633 305.512,117.395 324.562,117.395 324.562,119.300 348.377,119.300 348.377,100.250 367.427,100.250 367.427,81.198 357.901,81.198 357.901,62.148 353.139,62.148 353.139,43.100 362.664,43.100 362.664,24.048 324.564,24.048 324.564,22.143 305.514,22.143 305.514,17.381 286.464,17.381 286.464,14.999" style="fill:none;stroke-width:0.050000mm;stroke:black"/>
<polygon points="371.654,89.525 370.957,89.880 370.404,90.433 370.049,91.130 369.927,91.903 370.049,92.675 370.404,93.372 370.957,93.925 371.654,94.280 372.427,94.403 373.199,94.280 373.896,93.925 374.449,93.372 374.804,92.675 374.927,91.903 374.804,91.130 374.449,90.433 373.896,89.880 373.199,89.525 372.427,89.403" style="fill:none;stroke-width:0.050000mm;stroke:black"/>
<polygon points="9.228,89.525 8.531,89.880 7.978,90.433 7.623,91.130 7.500,91.903 7.623,92.675 7.978,93.372 8.531,93.925 9.228,94.280 10.001,94.403 10.773,94.280 11.470,93.925 12.023,93.372 12.378,92.675 12.501,91.903 12.378,91.130 12.023,90.433 11.470,89.880 10.773,89.525 10.001,89.403" style="fill:none;stroke-width:0.050000mm;stroke:black"/>
<polygon points="95.962,74.626 76.914,74.626 76.914,74.533 95.962,74.533" style="fill:none;stroke-width:0.050000mm;stroke:black"/>
<polygon points="371.654,62.224 370.957,62.579 370.404,63.133 370.049,63.829 369.927,64.602 370.049,65.374 370.404,66.071 370.957,66.625 371.654,66.980 372.427,67.102 373.199,66.980 373.896,66.625 374.449,66.071 374.804,65.374 374.927,64.602 374.804,63.829 374.449,63.133 373.896,62.579 373.199,62.224 372.427,62.102" style="fill:none;stroke-width:0.050000mm;stroke:black"/>
<polygon points="9.228,62.224 8.531,62.579 7.978,63.133 7.623,63.829 7.500,64.602 7.623,65.374 7.978,66.071 8.531,66.625 9.228,66.980 10.001,67.102 10.773,66.980 11.470,66.625 12.023,66.071 12.378,65.374 12.501,64.602 12.378,63.829 12.023,63.133 11.470,62.579 10.773,62.224 10.001,62.102" style="fill:none;stroke-width:0.050000mm;stroke:black"/>
<polygon points="267.412,55.576 248.364,55.576 248.364,55.483 267.412,55.483" style="fill:none;stroke-width:0.050000mm;stroke:black"/>
<polygon points="371.654,34.924 370.957,35.279 370.404,35.832 370.049,36.529 369.927,37.301 370.049,38.074 370.404,38.771 370.957,39.324 371.654,39.679 372.427,39.801 373.199,39.679 373.896,39.324 374.449,38.771 374.804,38.074 374.927,37.301 374.804,36.529 374.449,35.832 373.896,35.279 373.199,34.924 372.427,34.801" style="fill:none;stroke-width:0.050000mm;stroke:black"/>
<polygon points="9.228,34.924 8.531,35.279 7.978,35.832 7.623,36.529 7.500,37.301 7.623,38.074 7.978,38.771 8.531,39.324 9.228,39.679 10.001,39.801 10.773,39.679 11.470,39.324 12.023,38.771 12.378,38.074 12.501,37.301 12.378,36.529 12.023,35.832 11.470,35.279 10.773,34.924 10.001,34.801" style="fill:none;stroke-width:0.050000mm;stroke:black"/>
<polygon points="42.176,7.623 41.479,7.978 40.926,8.531 40.571,9.228 40.448,10.001 40.571,10.773 40.926,11.470 41.479,12.023 42.176,12.378 42.948,12.501 43.721,12.378 44.418,12.023 44.971,11.470 45.326,10.773 45.448,10.001 45.326,9.228 44.971,8.531 44.418,7.978 43.721,7.623 42.948,7.501" style="fill:none;stroke-width:0.050000mm;stroke:black"/>
<polygon points="75.124,7.623 74.427,7.978 73.874,8.531 73.518,9.228 73.396,10.001 73.518,10.773 73.874,11.470 74.427,12.023 75.124,12.378 75.896,12.501 76.669,12.378 77.366,12.023 77.919,11.470 78.274,10.773 78.396,10.001 78.274,9.228 77.919,8.531 77.366,7.978 76.669,7.623 75.896,7.501" style="fill:none;stroke-width:0.050000mm;stroke:black"/>
<polygon points="108.071,7.623 107.374,7.978 106.821,8.531 106.466,9.228 106.344,10.001 106.466,10.773 106.821,11.470 107.374,12.023 108.071,12.378 108.844,12.501 109.616,12.378 110.313,12.023 110.866,11.470 111.222,10.773 111.344,10.001 111.222,9.228 110.866,8.531 110.313,7.978 109.616,7.623 108.844,7.501" style="fill:none;stroke-width:0.050000mm;stroke:black"/>
<polygon points="141.019,7.623 140.322,7.978 139.769,8.531 139.414,9.228 139.292,10.001 139.414,10.773 139.769,11.470 140.322,12.023 141.019,12.378 141.792,12.501 142.564,12.378 143.261,12.023 143.814,11.470 144.169,10.773 144.292,10.001 144.169,9.228 143.814,8.531 143.261,7.978 142.564,7.623 141.792,7.501" style="fill:none;stroke-width:0.050000mm;stroke:black"/>
<polygon points="173.967,7.623 173.270,7.978 172.717,8.531 172.362,9.228 172.240,10.001 172.362,10.773 172.717,11.470 173.270,12.023 173.967,12.378 174.740,12.501 175.512,12.378 176.209,12.023 176.762,11.470 177.117,10.773 177.240,10.001 177.117,9.228 176.762,8.531 176.209,7.978 175.512,7.623 174.740,7.501" style="fill:none;stroke-width:0.050000mm;stroke:black"/>
<polygon points="206.915,7.623 206.218,7.978 205.665,8.531 205.310,9.228 205.187,10.001 205.310,10.773 205.665,11.470 206.218,12.023 206.915,12.378 207.687,12.501 208.460,12.378 209.157,12.023 209.710,11.470 210.065,10.773 210.187,10.001 210.065,9.228 209.710,8.531 209.157,7.978 208.460,7.623 207.687,7.501" style="fill:none;stroke-width:0.050000mm;stroke:black"/>
<polygon points="239.863,7.623 239.166,7.978 238.613,8.531 238.258,9.228 238.135,10.001 238.258,10.773 238.613,11.470 239.166,12.023 239.863,12.378 240.635,12.501 241.408,12.378 242.105,12.023 242.658,11.470 243.013,10.773 243.135,10.001 243.013,9.228 242.658,8.531 242.105,7.978 241.408,7.623 240.635,7.501" style="fill:none;stroke-width:0.050000mm;stroke:black"/>
<polygon points="272.811,7.623 272.114,7.978 271.561,8.531 271.205,9.228 271.083,10.001 271.205,10.773 271.561,11.470 272.114,12.023 272.811,12.378 273.583,12.501 274.356,12.378 275.053,12.023 275.606,11.470 275.961,10.773 276.083,10.001 275.961,9.228 275.606,8.531 275.053,7.978 274.356,7.623 273.583,7.501" style="fill:none;stroke-width:0.050000mm;stroke:black"/>
<polygon points="305.758,7.623 305.061,7.978 304.508,8.531 304.153,9.228 304.031,10.001 304.153,10.773 304.508,11.470 305.061,12.023 305.758,12.378 306.531,12.501 307.303,12.378 308.000,12.023 308.553,11.470 308.909,10.773 309.031,10.001 308.909,9.228 308.553,8.531 308.000,7.978 307.303,7.623 306.531,7.501" style="fill:none;stroke-width:0.050000mm;stroke:black"/>
<polygon points="338.706,7.623 338.009,7.978 337.456,8.531 337.101,9.228 336.979,10.001 337.101,10.773 337.456,11.470 338.009,12.023 338.706,12.378 339.479,12.501 340.251,12.378 340.948,12.023 341.501,11.470 341.856,10.773 341.979,10.001 341.856,9.228 341.501,8.531 340.948,7.978 340.251,7.623 339.479,7.501" style="fill:none;stroke-width:0.050000mm;stroke:black"/>
<polygon points="371.654,7.623 370.957,7.978 370.404,8.531 370.049,9.228 369.927,10.001 370.049,10.773 370.404,11.470 370.957,12.023 371.654,12.378 372.427,12.501 373.199,12.378 373.896,12.023 374.449,11.470 374.804,10.773 374.927,10.001 374.804,9.228 374.449,8.531 373.896,7.978 373.199,7.623 372.427,7.501" style="fill:none;stroke-width:0.050000mm;stroke:black"/>
<polygon points="9.228,7.623 8.531,7.978 7.978,8.531 7.623,9.228 7.500,10.001 7.623,10.773 7.978,11.470 8.531,12.023 9.228,12.378 10.001,12.501 10.773,12.378 11.470,12.023 12.023,11.470 12.378,10.773 12.501,10.001 12.378,9.228 12.023,8.531 11.470,7.978 10.773,7.623 10.001,7.501" style="fill:none;stroke-width:0.050000mm;stroke:black"/>
</svg>
