<?xml version="1.0"?>
<!-- Generated by SVGo -->
<svg width="382.427mm" height="156.504mm"
     viewBox="0.000 0.000 382.427 156.504"
     xmlns="http://www.w3.org/2000/svg" 
     xmlns:xlink="http://www.w3.org/1999/xlink">
<polygon points="372.427,5.001 372.819,5.016 373.209,5.062 373.594,5.139 373.972,5.245 374.340,5.381 374.696,5.545 375.039,5.737 375.365,5.955 375.674,6.198 375.962,6.465 376.229,6.753 376.472,7.062 376.690,7.388 376.882,7.731 377.046,8.087 377.182,8.455 377.288,8.833 377.365,9.218 377.411,9.608 377.426,10.001 377.427,146.504 377.411,146.897 377.365,147.286 377.288,147.671 377.182,148.049 377.046,148.418 376.882,148.774 376.690,149.117 376.472,149.443 376.229,149.751 375.962,150.040 375.674,150.306 375.365,150.549 375.039,150.767 374.696,150.959 374.340,151.124 373.972,151.260 373.594,151.366 373.209,151.443 372.819,151.489 372.427,151.504 10.001,151.504 9.608,151.489 9.218,151.443 8.833,151.366 8.455,151.260 8.087,151.124 7.731,150.959 7.388,150.767 7.062,150.549 6.753,150.306 6.465,150.040 6.198,149.751 5.955,149.443 5.737,149.117 5.545,148.774 5.381,148.418 5.245,148.049 5.139,147.671 5.062,147.286 5.016,146.897 5.000,146.504 5.001,10.001 5.016,9.608 5.062,9.218 5.139,8.833 5.245,8.455 5.381,8.087 5.545,7.731 5.737,7.388 5.955,7.062 6.198,6.753 6.465,6.465 6.753,6.198 7.062,5.955 7.388,5.737 7.731,5.545 8.087,5.381 8.455,5.245 8.833,5.139 9.218,5.062 9.608,5.016 10.001,5.000" style="fill:none;stroke-width:0.050000mm;stroke:black"/>
<polygon points="371.963,145.078 371.545,145.291 371.213,145.623 371.000,146.041 370.927,146.504 371.000,146.968 371.213,147.386 371.545,147.718 371.963,147.931 372.427,148.004 372.890,147.931 373.308,147.718 373.640,147.386 373.853,146.968 373.926,146.504 373.853,146.041 373.640,145.623 373.308,145.291 372.890,145.078 372.427,145.004" style="fill:none;stroke-width:0.050000mm;stroke:black"/>
<polygon points="190.750,145.078 190.332,145.291 190.000,145.623 189.787,146.041 189.713,146.504 189.787,146.968 190.000,147.386 190.332,147.718 190.750,147.931 191.214,148.004 191.677,147.931 192.095,147.718 192.427,147.386 192.640,146.968 192.714,146.504 192.640,146.041 192.427,145.623 192.095,145.291 191.677,145.078 191.214,145.004" style="fill:none;stroke-width:0.050000mm;stroke:black"/>
<polygon points="9.537,145.078 9.119,145.291 8.787,145.623 8.574,146.041 8.501,146.504 8.574,146.968 8.787,147.386 9.119,147.718 9.537,147.931 10.001,148.004 10.464,147.931 10.882,147.718 11.214,147.386 11.427,146.968 11.501,146.504 11.427,146.041 11.214,145.623 10.882,145.291 10.464,145.078 10.001,145.004" style="fill:none;stroke-width:0.050000mm;stroke:black"/>
<polygon points="15.001,15.001 15.001,141.504 367.427,141.504 367.427,15.001" style="fill:none;stroke-width:0.050000mm;stroke:black"/>
<polygon points="190.750,8.574 190.332,8.787 190.000,9.119 189.787,9.537 189.713,10.001 189.787,10.464 190.000,10.882 190.332,11.214 190.750,11.427 191.214,11.501 191.677,11.427 192.095,11.214 192.427,10.882 192.640,10.464 192.714,10.001 192.640,9.537 192.427,9.119 192.095,8.787 191.677,8.574 191.214,8.501" style="fill:none;stroke-width:0.050000mm;stroke:black"/>
<polygon points="371.963,8.574 371.545,8.787 371.213,9.119 371.000,9.537 370.927,10.001 371.000,10.464 371.213,10.882 371.545,11.214 371.963,11.427 372.427,11.501 372.890,11.427 373.308,11.214 373.640,10.882 373.853,10.464 373.926,10.001 373.853,9.537 373.640,9.119 373.308,8.787 372.890,8.574 372.427,8.501" style="fill:none;stroke-width:0.050000mm;stroke:black"/>
<polygon points="9.537,8.574 9.119,8.787 8.787,9.119 8.574,9.537 8.501,10.001 8.574,10.464 8.787,10.882 9.119,11.214 9.537,11.427 10.001,11.501 10.464,11.427 10.882,11.214 11.214,10.882 11.427,10.464 11.501,10.001 11.427,9.537 11.214,9.119 10.882,8.787 10.464,8.574 10.001,8.501" style="fill:none;stroke-width:0.050000mm;stroke:black"/>
</svg>
