<?xml version="1.0"?>
<!-- Generated by SVGo -->
<svg width="382.427mm" height="156.504mm"
     viewBox="0.000 0.000 382.427 156.504"
     xmlns="http://www.w3.org/2000/svg" 
     xmlns:xlink="http://www.w3.org/1999/xlink">
<polygon points="372.427,5.001 372.819,5.016 373.209,5.062 373.594,5.139 373.972,5.245 374.340,5.381 374.696,5.545 375.039,5.737 375.365,5.955 375.674,6.198 375.962,6.465 376.229,6.753 376.472,7.062 376.690,7.388 376.882,7.731 377.046,8.087 377.182,8.455 377.288,8.833 377.365,9.218 377.411,9.608 377.426,10.001 377.427,146.504 377.411,146.897 377.365,147.286 377.288,147.671 377.182,148.049 377.046,148.418 376.882,148.774 376.690,149.117 376.472,149.443 376.229,149.751 375.962,150.040 375.674,150.306 375.365,150.549 375.039,150.767 374.696,150.959 374.340,151.124 373.972,151.260 373.594,151.366 373.209,151.443 372.819,151.489 372.427,151.504 10.001,151.504 9.608,151.489 9.218,151.443 8.833,151.366 8.455,151.260 8.087,151.124 7.731,150.959 7.388,150.767 7.062,150.549 6.753,150.306 6.465,150.040 6.198,149.751 5.955,149.443 5.737,149.117 5.545,148.774 5.381,148.418 5.245,148.049 5.139,147.671 5.062,147.286 5.016,146.897 5.000,146.504 5.001,10.001 5.016,9.608 5.062,9.218 5.139,8.833 5.245,8.455 5.381,8.087 5.545,7.731 5.737,7.388 5.955,7.062 6.198,6.753 6.465,6.465 6.753,6.198 7.062,5.955 7.388,5.737 7.731,5.545 8.087,5.381 8.455,5.245 8.833,5.139 9.218,5.062 9.608,5.016 10.001,5.000" style="fill:none;stroke-width:0.050000mm;stroke:black"/>
<polygon points="371.963,145.078 371.545,145.291 371.213,145.623 371.000,146.041 370.927,146.504 371.000,146.968 371.213,147.386 371.545,147.718 371.963,147.931 372.427,148.004 372.890,147.931 373.308,147.718 373.640,147.386 373.853,146.968 373.926,146.504 373.853,146.041 373.640,145.623 373.308,145.291 372.890,145.078 372.427,145.004" style="fill:none;stroke-width:0.050000mm;stroke:black"/>
<polygon points="190.750,145.078 190.332,145.291 190.000,145.623 189.787,146.041 189.713,146.504 189.787,146.968 190.000,147.386 190.332,147.718 190.750,147.931 191.214,148.004 191.677,147.931 192.095,147.718 192.427,147.386 192.640,146.968 192.714,146.504 192.640,146.041 192.427,145.623 192.095,145.291 191.677,145.078 191.214,145.004" style="fill:none;stroke-width:0.050000mm;stroke:black"/>
<polygon points="9.537,145.078 9.119,145.291 8.787,145.623 8.574,146.041 8.501,146.504 8.574,146.968 8.787,147.386 9.119,147.718 9.537,147.931 10.001,148.004 10.464,147.931 10.882,147.718 11.214,147.386 11.427,146.968 11.501,146.504 11.427,146.041 11.214,145.623 10.882,145.291 10.464,145.078 10.001,145.004" style="fill:none;stroke-width:0.050000mm;stroke:black"/>
<polygon points="197.089,120.233 204.089,132.357 216.214,125.357 209.214,113.233" style="fill:none;stroke-width:0.050000mm;stroke:black"/>
<polygon points="218.694,100.953 218.282,100.239 215.857,101.639 216.269,102.353 210.839,105.488 211.702,106.982 210.853,107.472 212.503,110.330 213.352,109.840 214.214,111.334 218.086,109.099 218.849,110.420 214.778,112.770 221.778,124.894 225.848,122.544 226.611,123.865 222.739,126.100 223.602,127.594 222.753,128.084 224.403,130.942 225.252,130.452 226.114,131.946 231.544,128.811 231.957,129.525 234.382,128.125 233.969,127.411 236.766,125.796 235.904,124.302 236.701,123.842 235.051,120.984 234.254,121.444 233.391,119.950 230.594,121.565 229.831,120.244 233.902,117.894 226.902,105.770 222.832,108.120 222.069,106.799 224.866,105.184 224.004,103.690 224.801,103.230 223.151,100.372 222.354,100.832 221.491,99.338" style="fill:none;stroke-width:0.050000mm;stroke:black"/>
<polygon points="164.002,124.081 176.126,131.081 183.126,118.957 171.002,111.957" style="fill:none;stroke-width:0.050000mm;stroke:black"/>
<polygon points="157.862,99.556 157.065,99.096 155.415,101.954 156.212,102.414 155.349,103.908 158.146,105.523 157.384,106.844 153.314,104.494 146.314,116.618 150.384,118.968 149.621,120.289 146.824,118.674 145.962,120.168 145.165,119.708 143.515,122.566 144.312,123.026 143.449,124.519 146.246,126.134 145.834,126.849 148.259,128.248 148.671,127.534 154.101,130.669 154.964,129.176 155.813,129.665 157.463,126.808 156.614,126.318 157.476,124.824 153.605,122.589 154.368,121.268 158.438,123.618 165.438,111.494 161.367,109.144 162.130,107.823 166.001,110.058 166.864,108.564 167.713,109.054 169.363,106.196 168.514,105.706 169.376,104.212 163.946,101.077 164.359,100.363 161.934,98.963 161.521,99.677 158.724,98.062" style="fill:none;stroke-width:0.050000mm;stroke:black"/>
<polygon points="241.034,105.860 248.034,117.984 260.157,110.984 253.158,98.860" style="fill:none;stroke-width:0.050000mm;stroke:black"/>
<polygon points="121.707,110.660 133.831,117.660 140.831,105.536 128.706,98.536" style="fill:none;stroke-width:0.050000mm;stroke:black"/>
<polygon points="38.957,102.774 38.957,116.774 52.957,116.774 52.957,102.774" style="fill:none;stroke-width:0.050000mm;stroke:black"/>
<polygon points="329.469,102.774 329.469,116.774 343.469,116.774 343.469,102.774" style="fill:none;stroke-width:0.050000mm;stroke:black"/>
<polygon points="60.388,100.869 60.388,114.869 74.388,114.869 74.388,100.869" style="fill:none;stroke-width:0.050000mm;stroke:black"/>
<polygon points="308.038,100.869 308.038,114.869 322.038,114.869 322.038,100.869" style="fill:none;stroke-width:0.050000mm;stroke:black"/>
<polygon points="79.438,96.107 79.438,110.107 93.438,110.107 93.438,96.107" style="fill:none;stroke-width:0.050000mm;stroke:black"/>
<polygon points="288.988,96.107 288.988,110.107 302.988,110.107 302.988,96.107" style="fill:none;stroke-width:0.050000mm;stroke:black"/>
<polygon points="98.488,93.726 98.488,107.726 112.488,107.726 112.488,93.726" style="fill:none;stroke-width:0.050000mm;stroke:black"/>
<polygon points="269.938,93.726 269.938,107.726 283.938,107.726 283.938,93.726" style="fill:none;stroke-width:0.050000mm;stroke:black"/>
<polygon points="29.432,83.724 29.432,88.424 27.907,88.424 27.907,85.194 26.182,85.194 26.182,84.274 22.882,84.274 22.882,85.194 21.157,85.194 21.157,88.424 20.332,88.424 20.332,91.224 21.157,91.224 21.157,97.494 22.882,97.494 22.882,98.474 26.182,98.474 26.182,97.494 27.907,97.494 27.907,93.024 29.432,93.024 29.432,97.724 43.432,97.724 43.432,93.024 44.957,93.024 44.957,97.494 46.682,97.494 46.682,98.474 49.982,98.474 49.982,97.494 51.707,97.494 51.707,91.224 52.532,91.224 52.532,88.424 51.707,88.424 51.707,85.194 49.982,85.194 49.982,84.274 46.682,84.274 46.682,85.194 44.957,85.194 44.957,88.424 43.432,88.424 43.432,83.724" style="fill:none;stroke-width:0.050000mm;stroke:black"/>
<polygon points="338.994,83.724 338.994,88.424 337.469,88.424 337.469,85.194 335.744,85.194 335.744,84.274 332.444,84.274 332.444,85.194 330.719,85.194 330.719,88.424 329.894,88.424 329.894,91.224 330.719,91.224 330.719,97.494 332.444,97.494 332.444,98.474 335.744,98.474 335.744,97.494 337.469,97.494 337.469,93.024 338.994,93.024 338.994,97.724 352.994,97.724 352.994,93.024 354.519,93.024 354.519,97.494 356.244,97.494 356.244,98.474 359.544,98.474 359.544,97.494 361.269,97.494 361.269,91.224 362.094,91.224 362.094,88.424 361.269,88.424 361.269,85.194 359.544,85.194 359.544,84.274 356.244,84.274 356.244,85.194 354.519,85.194 354.519,88.424 352.994,88.424 352.994,83.724" style="fill:none;stroke-width:0.050000mm;stroke:black"/>
<polygon points="60.388,81.819 60.388,95.819 74.388,95.819 74.388,81.819" style="fill:none;stroke-width:0.050000mm;stroke:black"/>
<polygon points="308.038,81.819 308.038,95.819 322.038,95.819 322.038,81.819" style="fill:none;stroke-width:0.050000mm;stroke:black"/>
<polygon points="136.588,79.438 136.588,93.438 150.588,93.438 150.588,79.438" style="fill:none;stroke-width:0.050000mm;stroke:black"/>
<polygon points="231.838,79.438 231.838,93.438 245.838,93.438 245.838,79.438" style="fill:none;stroke-width:0.050000mm;stroke:black"/>
<polygon points="79.438,77.152 79.438,91.152 93.438,91.152 93.438,77.152" style="fill:none;stroke-width:0.050000mm;stroke:black"/>
<polygon points="117.538,77.057 117.538,91.057 131.538,91.057 131.538,77.057" style="fill:none;stroke-width:0.050000mm;stroke:black"/>
<polygon points="250.888,77.057 250.888,91.057 264.888,91.057 264.888,77.057" style="fill:none;stroke-width:0.050000mm;stroke:black"/>
<polygon points="288.988,77.057 288.988,91.057 302.988,91.057 302.988,77.057" style="fill:none;stroke-width:0.050000mm;stroke:black"/>
<polygon points="98.488,74.676 98.488,88.676 112.488,88.676 112.488,74.676" style="fill:none;stroke-width:0.050000mm;stroke:black"/>
<polygon points="269.938,74.676 269.938,88.676 283.938,88.676 283.938,74.676" style="fill:none;stroke-width:0.050000mm;stroke:black"/>
<polygon points="34.194,64.674 34.194,78.674 48.194,78.674 48.194,64.674" style="fill:none;stroke-width:0.050000mm;stroke:black"/>
<polygon points="334.232,64.674 334.232,78.674 348.232,78.674 348.232,64.674" style="fill:none;stroke-width:0.050000mm;stroke:black"/>
<polygon points="60.388,62.769 60.388,76.769 74.388,76.769 74.388,62.769" style="fill:none;stroke-width:0.050000mm;stroke:black"/>
<polygon points="308.038,62.769 308.038,76.769 322.038,76.769 322.038,62.769" style="fill:none;stroke-width:0.050000mm;stroke:black"/>
<polygon points="155.638,62.293 155.638,76.293 169.638,76.293 169.638,62.293" style="fill:none;stroke-width:0.050000mm;stroke:black"/>
<polygon points="212.788,62.293 212.788,76.293 226.788,76.293 226.788,62.293" style="fill:none;stroke-width:0.050000mm;stroke:black"/>
<polygon points="136.588,60.388 136.588,74.388 150.588,74.388 150.588,60.388" style="fill:none;stroke-width:0.050000mm;stroke:black"/>
<polygon points="231.838,60.388 231.838,74.388 245.838,74.388 245.838,60.388" style="fill:none;stroke-width:0.050000mm;stroke:black"/>
<polygon points="250.888,58.102 250.888,72.102 264.888,72.102 264.888,58.102" style="fill:none;stroke-width:0.050000mm;stroke:black"/>
<polygon points="79.438,58.007 79.438,72.007 93.438,72.007 93.438,58.007" style="fill:none;stroke-width:0.050000mm;stroke:black"/>
<polygon points="117.538,58.007 117.538,72.007 131.538,72.007 131.538,58.007" style="fill:none;stroke-width:0.050000mm;stroke:black"/>
<polygon points="288.988,58.007 288.988,72.007 302.988,72.007 302.988,58.007" style="fill:none;stroke-width:0.050000mm;stroke:black"/>
<polygon points="98.488,55.626 98.488,69.626 112.488,69.626 112.488,55.626" style="fill:none;stroke-width:0.050000mm;stroke:black"/>
<polygon points="269.938,55.626 269.938,69.626 283.938,69.626 283.938,55.626" style="fill:none;stroke-width:0.050000mm;stroke:black"/>
<polygon points="36.576,45.624 36.576,59.624 50.576,59.624 50.576,45.624" style="fill:none;stroke-width:0.050000mm;stroke:black"/>
<polygon points="331.851,45.624 331.851,59.624 345.851,59.624 345.851,45.624" style="fill:none;stroke-width:0.050000mm;stroke:black"/>
<polygon points="60.388,43.719 60.388,57.719 74.388,57.719 74.388,43.719" style="fill:none;stroke-width:0.050000mm;stroke:black"/>
<polygon points="308.038,43.719 308.038,57.719 322.038,57.719 322.038,43.719" style="fill:none;stroke-width:0.050000mm;stroke:black"/>
<polygon points="155.638,43.243 155.638,57.243 169.638,57.243 169.638,43.243" style="fill:none;stroke-width:0.050000mm;stroke:black"/>
<polygon points="212.788,43.243 212.788,57.243 226.788,57.243 226.788,43.243" style="fill:none;stroke-width:0.050000mm;stroke:black"/>
<polygon points="136.588,41.338 136.588,55.338 150.588,55.338 150.588,41.338" style="fill:none;stroke-width:0.050000mm;stroke:black"/>
<polygon points="231.838,41.338 231.838,55.338 245.838,55.338 245.838,41.338" style="fill:none;stroke-width:0.050000mm;stroke:black"/>
<polygon points="79.438,38.957 79.438,52.957 93.438,52.957 93.438,38.957" style="fill:none;stroke-width:0.050000mm;stroke:black"/>
<polygon points="117.538,38.957 117.538,52.957 131.538,52.957 131.538,38.957" style="fill:none;stroke-width:0.050000mm;stroke:black"/>
<polygon points="250.888,38.957 250.888,52.957 264.888,52.957 264.888,38.957" style="fill:none;stroke-width:0.050000mm;stroke:black"/>
<polygon points="288.988,38.957 288.988,52.957 302.988,52.957 302.988,38.957" style="fill:none;stroke-width:0.050000mm;stroke:black"/>
<polygon points="98.488,36.576 98.488,50.576 112.488,50.576 112.488,36.576" style="fill:none;stroke-width:0.050000mm;stroke:black"/>
<polygon points="269.938,36.576 269.938,50.576 283.938,50.576 283.938,36.576" style="fill:none;stroke-width:0.050000mm;stroke:black"/>
<polygon points="22.288,26.574 22.288,40.574 36.288,40.574 36.288,26.574" style="fill:none;stroke-width:0.050000mm;stroke:black"/>
<polygon points="41.338,26.574 41.338,40.574 55.338,40.574 55.338,26.574" style="fill:none;stroke-width:0.050000mm;stroke:black"/>
<polygon points="327.088,26.574 327.088,40.574 341.088,40.574 341.088,26.574" style="fill:none;stroke-width:0.050000mm;stroke:black"/>
<polygon points="346.138,26.574 346.138,40.574 360.138,40.574 360.138,26.574" style="fill:none;stroke-width:0.050000mm;stroke:black"/>
<polygon points="60.388,24.669 60.388,38.669 74.388,38.669 74.388,24.669" style="fill:none;stroke-width:0.050000mm;stroke:black"/>
<polygon points="308.038,24.669 308.038,38.669 322.038,38.669 322.038,24.669" style="fill:none;stroke-width:0.050000mm;stroke:black"/>
<polygon points="155.638,24.193 155.638,38.193 169.638,38.193 169.638,24.193" style="fill:none;stroke-width:0.050000mm;stroke:black"/>
<polygon points="212.788,24.193 212.788,38.193 226.788,38.193 226.788,24.193" style="fill:none;stroke-width:0.050000mm;stroke:black"/>
<polygon points="136.588,22.288 136.588,36.288 150.588,36.288 150.588,22.288" style="fill:none;stroke-width:0.050000mm;stroke:black"/>
<polygon points="231.838,22.288 231.838,36.288 245.838,36.288 245.838,22.288" style="fill:none;stroke-width:0.050000mm;stroke:black"/>
<polygon points="79.438,19.907 79.438,33.907 93.438,33.907 93.438,19.907" style="fill:none;stroke-width:0.050000mm;stroke:black"/>
<polygon points="117.538,19.907 117.538,33.907 131.538,33.907 131.538,19.907" style="fill:none;stroke-width:0.050000mm;stroke:black"/>
<polygon points="250.888,19.907 250.888,33.907 264.888,33.907 264.888,19.907" style="fill:none;stroke-width:0.050000mm;stroke:black"/>
<polygon points="288.988,19.907 288.988,33.907 302.988,33.907 302.988,19.907" style="fill:none;stroke-width:0.050000mm;stroke:black"/>
<polygon points="98.488,17.526 98.488,31.526 112.488,31.526 112.488,17.526" style="fill:none;stroke-width:0.050000mm;stroke:black"/>
<polygon points="269.938,17.526 269.938,31.526 283.938,31.526 283.938,17.526" style="fill:none;stroke-width:0.050000mm;stroke:black"/>
<polygon points="190.750,8.574 190.332,8.787 190.000,9.119 189.787,9.537 189.713,10.001 189.787,10.464 190.000,10.882 190.332,11.214 190.750,11.427 191.214,11.501 191.677,11.427 192.095,11.214 192.427,10.882 192.640,10.464 192.714,10.001 192.640,9.537 192.427,9.119 192.095,8.787 191.677,8.574 191.214,8.501" style="fill:none;stroke-width:0.050000mm;stroke:black"/>
<polygon points="371.963,8.574 371.545,8.787 371.213,9.119 371.000,9.537 370.927,10.001 371.000,10.464 371.213,10.882 371.545,11.214 371.963,11.427 372.427,11.501 372.890,11.427 373.308,11.214 373.640,10.882 373.853,10.464 373.926,10.001 373.853,9.537 373.640,9.119 373.308,8.787 372.890,8.574 372.427,8.501" style="fill:none;stroke-width:0.050000mm;stroke:black"/>
<polygon points="9.537,8.574 9.119,8.787 8.787,9.119 8.574,9.537 8.501,10.001 8.574,10.464 8.787,10.882 9.119,11.214 9.537,11.427 10.001,11.501 10.464,11.427 10.882,11.214 11.214,10.882 11.427,10.464 11.501,10.001 11.427,9.537 11.214,9.119 10.882,8.787 10.464,8.574 10.001,8.501" style="fill:none;stroke-width:0.050000mm;stroke:black"/>
</svg>
