<?xml version="1.0"?>
<!-- Generated by SVGo -->
<svg width="382.526mm" height="156.623mm"
     viewBox="0.000 0.000 382.526 156.623"
     xmlns="http://www.w3.org/2000/svg" 
     xmlns:xlink="http://www.w3.org/1999/xlink">
<polygon points="372.526,5.001 372.919,5.016 373.309,5.062 373.694,5.139 374.072,5.245 374.440,5.381 374.796,5.545 375.139,5.737 375.465,5.955 375.774,6.198 376.062,6.465 376.329,6.753 376.572,7.062 376.790,7.388 376.982,7.731 377.146,8.087 377.282,8.455 377.388,8.833 377.465,9.218 377.511,9.608 377.526,10.001 377.526,146.623 377.511,147.015 377.465,147.405 377.388,147.790 377.282,148.168 377.146,148.536 376.982,148.892 376.790,149.235 376.572,149.561 376.329,149.870 376.062,150.158 375.774,150.425 375.465,150.668 375.139,150.886 374.796,151.078 374.440,151.242 374.072,151.378 373.694,151.484 373.309,151.561 372.919,151.607 372.527,151.623 10.001,151.623 9.608,151.607 9.218,151.561 8.833,151.484 8.455,151.378 8.087,151.242 7.731,151.078 7.388,150.886 7.062,150.668 6.753,150.425 6.465,150.158 6.198,149.870 5.955,149.561 5.737,149.235 5.545,148.892 5.381,148.536 5.245,148.168 5.139,147.790 5.062,147.405 5.016,147.015 5.000,146.623 5.001,10.001 5.016,9.608 5.062,9.218 5.139,8.833 5.245,8.455 5.381,8.087 5.545,7.731 5.737,7.388 5.955,7.062 6.198,6.753 6.465,6.465 6.753,6.198 7.062,5.955 7.388,5.737 7.731,5.545 8.087,5.381 8.455,5.245 8.833,5.139 9.218,5.062 9.608,5.016 10.001,5.000" style="fill:none;stroke-width:0.050000mm;stroke:black"/>
<polygon points="371.719,144.242 371.036,144.590 370.494,145.132 370.146,145.815 370.026,146.573 370.146,147.330 370.494,148.013 371.036,148.555 371.719,148.903 372.476,149.023 373.234,148.903 373.917,148.555 374.459,148.013 374.807,147.330 374.926,146.573 374.807,145.815 374.459,145.132 373.917,144.590 373.234,144.242 372.476,144.123" style="fill:none;stroke-width:0.050000mm;stroke:black"/>
<polygon points="9.293,144.242 8.610,144.590 8.068,145.132 7.720,145.815 7.601,146.573 7.720,147.330 8.068,148.013 8.610,148.555 9.293,148.903 10.051,149.023 10.808,148.903 11.491,148.555 12.033,148.013 12.381,147.330 12.501,146.573 12.381,145.815 12.033,145.132 11.491,144.590 10.808,144.242 10.051,144.123" style="fill:none;stroke-width:0.050000mm;stroke:black"/>
<polygon points="134.547,132.047 151.047,141.573 158.191,129.199 174.688,138.724 188.977,113.976 172.479,104.451 177.241,96.202 160.742,86.676" style="fill:none;stroke-width:0.050000mm;stroke:black"/>
<polygon points="205.442,101.552 207.824,105.677 191.326,115.202 205.614,139.950 222.112,130.425 226.875,138.674 243.374,129.147 221.942,92.026" style="fill:none;stroke-width:0.050000mm;stroke:black"/>
<polygon points="235.590,106.144 245.116,122.644 265.739,110.736 256.213,94.237" style="fill:none;stroke-width:0.050000mm;stroke:black"/>
<polygon points="116.213,110.463 136.837,122.370 146.363,105.870 125.739,93.963" style="fill:none;stroke-width:0.050000mm;stroke:black"/>
<polygon points="96.012,15.050 96.012,17.431 76.962,17.431 76.962,22.193 57.912,22.193 57.912,24.098 19.812,24.098 19.812,43.150 29.337,43.150 29.337,62.198 24.575,62.198 24.575,81.248 15.050,81.248 15.050,100.300 34.100,100.300 34.100,119.350 57.914,119.350 57.914,117.445 76.964,117.445 76.964,112.683 96.014,112.683 96.014,110.301 115.064,110.301 115.064,93.633 134.112,93.633 134.112,96.014 153.164,96.014 153.164,78.869 172.214,78.869 172.214,21.717 153.164,21.717 153.164,19.812 134.114,19.812 134.114,17.431 115.064,17.431 115.064,15.050" style="fill:none;stroke-width:0.050000mm;stroke:black"/>
<polygon points="267.462,15.050 267.462,17.431 248.412,17.431 248.412,19.812 229.362,19.812 229.362,21.717 210.312,21.717 210.312,78.869 229.362,78.869 229.362,96.014 248.414,96.014 248.414,93.633 267.462,93.633 267.462,110.301 286.512,110.301 286.512,112.683 305.562,112.683 305.562,117.445 324.612,117.445 324.612,119.350 348.427,119.350 348.427,100.300 367.476,100.300 367.476,81.248 357.952,81.248 357.952,62.198 353.189,62.198 353.189,43.150 362.714,43.150 362.714,24.098 324.614,24.098 324.614,22.193 305.564,22.193 305.564,17.431 286.514,17.431 286.514,15.050" style="fill:none;stroke-width:0.050000mm;stroke:black"/>
<polygon points="96.012,74.676 76.964,74.676 76.964,74.583 96.012,74.583" style="fill:none;stroke-width:0.050000mm;stroke:black"/>
<polygon points="267.462,55.626 248.414,55.626 248.414,55.533 267.462,55.533" style="fill:none;stroke-width:0.050000mm;stroke:black"/>
<polygon points="371.719,7.720 371.036,8.068 370.494,8.610 370.146,9.293 370.026,10.050 370.146,10.808 370.494,11.491 371.036,12.033 371.719,12.381 372.476,12.501 373.234,12.381 373.917,12.033 374.459,11.491 374.807,10.808 374.926,10.051 374.807,9.293 374.459,8.610 373.917,8.068 373.234,7.720 372.476,7.601" style="fill:none;stroke-width:0.050000mm;stroke:black"/>
<polygon points="9.293,7.720 8.610,8.068 8.068,8.610 7.720,9.293 7.601,10.051 7.720,10.808 8.068,11.491 8.610,12.033 9.293,12.381 10.051,12.501 10.808,12.381 11.491,12.033 12.033,11.491 12.381,10.808 12.501,10.051 12.381,9.293 12.033,8.610 11.491,8.068 10.808,7.720 10.051,7.601" style="fill:none;stroke-width:0.050000mm;stroke:black"/>
</svg>
