<?xml version="1.0"?>
<!-- Generated by SVGo -->
<svg width="382.526mm" height="156.623mm"
     viewBox="0.000 0.000 382.526 156.623"
     xmlns="http://www.w3.org/2000/svg" 
     xmlns:xlink="http://www.w3.org/1999/xlink">
<polygon points="372.526,5.001 372.919,5.016 373.309,5.062 373.694,5.139 374.072,5.245 374.440,5.381 374.796,5.545 375.139,5.737 375.465,5.955 375.774,6.198 376.062,6.465 376.329,6.753 376.572,7.062 376.790,7.388 376.982,7.731 377.146,8.087 377.282,8.455 377.388,8.833 377.465,9.218 377.511,9.608 377.526,10.001 377.526,146.623 377.511,147.015 377.465,147.405 377.388,147.790 377.282,148.168 377.146,148.536 376.982,148.892 376.790,149.235 376.572,149.561 376.329,149.870 376.062,150.158 375.774,150.425 375.465,150.668 375.139,150.886 374.796,151.078 374.440,151.242 374.072,151.378 373.694,151.484 373.309,151.561 372.919,151.607 372.527,151.623 10.001,151.623 9.608,151.607 9.218,151.561 8.833,151.484 8.455,151.378 8.087,151.242 7.731,151.078 7.388,150.886 7.062,150.668 6.753,150.425 6.465,150.158 6.198,149.870 5.955,149.561 5.737,149.235 5.545,148.892 5.381,148.536 5.245,148.168 5.139,147.790 5.062,147.405 5.016,147.015 5.000,146.623 5.001,10.001 5.016,9.608 5.062,9.218 5.139,8.833 5.245,8.455 5.381,8.087 5.545,7.731 5.737,7.388 5.955,7.062 6.198,6.753 6.465,6.465 6.753,6.198 7.062,5.955 7.388,5.737 7.731,5.545 8.087,5.381 8.455,5.245 8.833,5.139 9.218,5.062 9.608,5.016 10.001,5.000" style="fill:none;stroke-width:0.050000mm;stroke:black"/>
<polygon points="371.719,144.242 371.036,144.590 370.494,145.132 370.146,145.815 370.026,146.573 370.146,147.330 370.494,148.013 371.036,148.555 371.719,148.903 372.476,149.023 373.234,148.903 373.917,148.555 374.459,148.013 374.807,147.330 374.926,146.573 374.807,145.815 374.459,145.132 373.917,144.590 373.234,144.242 372.476,144.123" style="fill:none;stroke-width:0.050000mm;stroke:black"/>
<polygon points="9.293,144.242 8.610,144.590 8.068,145.132 7.720,145.815 7.601,146.573 7.720,147.330 8.068,148.013 8.610,148.555 9.293,148.903 10.051,149.023 10.808,148.903 11.491,148.555 12.033,148.013 12.381,147.330 12.501,146.573 12.381,145.815 12.033,145.132 11.491,144.590 10.808,144.242 10.051,144.123" style="fill:none;stroke-width:0.050000mm;stroke:black"/>
<polygon points="205.400,114.626 205.800,115.319 200.690,118.269 200.290,117.576 197.692,119.076 198.092,119.769 197.226,120.269 204.176,132.307 205.042,131.807 205.442,132.500 208.040,131.000 207.640,130.307 212.750,127.357 213.150,128.050 215.748,126.550 215.348,125.857 216.214,125.357 209.264,113.319 208.398,113.819 207.998,113.126" style="fill:none;stroke-width:0.050000mm;stroke:black"/>
<polygon points="218.744,101.040 218.332,100.326 215.993,101.676 216.406,102.390 210.976,105.525 211.838,107.019 210.990,107.509 212.590,110.280 213.438,109.790 214.301,111.284 218.172,109.049 218.984,110.456 218.378,110.806 217.978,110.114 215.380,111.614 215.780,112.306 214.914,112.806 221.864,124.844 222.730,124.344 223.130,125.037 225.728,123.537 225.328,122.844 225.935,122.494 226.747,123.901 222.876,126.136 223.738,127.630 222.890,128.120 224.490,130.891 225.338,130.402 226.201,131.896 231.631,128.760 232.043,129.474 234.382,128.125 233.969,127.411 236.766,125.796 235.904,124.302 236.701,123.842 235.101,121.070 234.304,121.530 233.441,120.036 230.644,121.651 229.832,120.244 230.438,119.894 230.838,120.587 233.436,119.087 233.036,118.394 233.902,117.894 226.952,105.856 226.086,106.356 225.686,105.664 223.088,107.164 223.488,107.856 222.881,108.206 222.069,106.799 224.866,105.184 224.004,103.690 224.801,103.230 223.201,100.459 222.404,100.919 221.541,99.425" style="fill:none;stroke-width:0.050000mm;stroke:black"/>
<polygon points="171.905,112.593 171.039,112.093 164.089,124.131 164.955,124.631 164.555,125.324 167.153,126.824 167.553,126.131 172.662,129.081 172.262,129.774 174.860,131.274 175.260,130.581 176.126,131.081 183.076,119.043 182.210,118.543 182.610,117.850 180.012,116.350 179.612,117.043 174.503,114.093 174.903,113.400 172.305,111.900" style="fill:none;stroke-width:0.050000mm;stroke:black"/>
<polygon points="157.898,99.693 157.102,99.233 155.502,102.004 156.298,102.464 155.436,103.958 158.233,105.573 157.421,106.980 156.814,106.630 157.214,105.938 154.616,104.438 154.216,105.130 153.350,104.630 146.400,116.668 147.266,117.168 146.866,117.861 149.464,119.361 149.864,118.668 150.470,119.018 149.658,120.425 146.861,118.810 145.998,120.304 145.202,119.844 143.602,122.616 144.398,123.076 143.536,124.569 146.333,126.184 145.921,126.899 148.259,128.248 148.671,127.534 154.101,130.669 154.964,129.176 155.813,129.665 157.413,126.894 156.564,126.404 157.426,124.910 153.555,122.675 154.367,121.268 154.974,121.618 154.574,122.311 157.172,123.811 157.572,123.118 158.438,123.618 165.388,111.580 164.522,111.080 164.922,110.388 162.324,108.888 161.924,109.580 161.318,109.230 162.130,107.823 166.001,110.058 166.864,108.564 167.713,109.054 169.313,106.283 168.464,105.793 169.326,104.299 163.896,101.164 164.309,100.450 161.971,99.100 161.558,99.814 158.761,98.199" style="fill:none;stroke-width:0.050000mm;stroke:black"/>
<polygon points="241.171,105.896 241.671,106.762 240.978,107.162 242.478,109.760 243.171,109.360 246.121,114.470 245.428,114.870 246.928,117.468 247.621,117.068 248.121,117.934 260.157,110.984 259.657,110.118 260.351,109.718 258.851,107.120 258.157,107.520 255.208,102.410 255.901,102.010 254.401,99.412 253.708,99.812 253.208,98.946" style="fill:none;stroke-width:0.050000mm;stroke:black"/>
<polygon points="128.244,99.539 127.551,99.139 126.051,101.737 126.744,102.137 123.794,107.246 123.101,106.846 121.601,109.444 122.294,109.844 121.794,110.710 133.831,117.660 134.331,116.794 135.024,117.194 136.524,114.596 135.831,114.196 138.781,109.087 139.474,109.487 140.974,106.889 140.281,106.489 140.781,105.623 128.744,98.673" style="fill:none;stroke-width:0.050000mm;stroke:black"/>
<polygon points="39.057,102.874 39.057,103.874 38.257,103.874 38.257,106.874 39.057,106.874 39.057,112.774 38.257,112.774 38.257,115.774 39.057,115.774 39.057,116.774 52.957,116.774 52.957,115.774 53.757,115.774 53.757,112.774 52.957,112.774 52.957,106.874 53.757,106.874 53.757,103.874 52.957,103.874 52.957,102.874" style="fill:none;stroke-width:0.050000mm;stroke:black"/>
<polygon points="329.569,102.874 329.569,103.874 328.769,103.874 328.769,106.874 329.569,106.874 329.569,112.774 328.769,112.774 328.769,115.774 329.569,115.774 329.569,116.774 343.469,116.774 343.469,115.774 344.269,115.774 344.269,112.774 343.469,112.774 343.469,106.874 344.269,106.874 344.269,103.874 343.469,103.874 343.469,102.874" style="fill:none;stroke-width:0.050000mm;stroke:black"/>
<polygon points="60.488,100.969 60.488,101.969 59.688,101.969 59.688,104.969 60.488,104.969 60.488,110.869 59.688,110.869 59.688,113.869 60.488,113.869 60.488,114.869 74.388,114.869 74.388,113.869 75.188,113.869 75.188,110.869 74.388,110.869 74.388,104.969 75.188,104.969 75.188,101.969 74.388,101.969 74.388,100.969" style="fill:none;stroke-width:0.050000mm;stroke:black"/>
<polygon points="308.138,100.969 308.138,101.969 307.338,101.969 307.338,104.969 308.138,104.969 308.138,110.869 307.338,110.869 307.338,113.869 308.138,113.869 308.138,114.869 322.038,114.869 322.038,113.869 322.838,113.869 322.838,110.869 322.038,110.869 322.038,104.969 322.838,104.969 322.838,101.969 322.038,101.969 322.038,100.969" style="fill:none;stroke-width:0.050000mm;stroke:black"/>
<polygon points="79.538,96.207 79.538,97.207 78.738,97.207 78.738,100.207 79.538,100.207 79.538,106.107 78.738,106.107 78.738,109.107 79.538,109.107 79.538,110.107 93.438,110.107 93.438,109.107 94.238,109.107 94.238,106.107 93.438,106.107 93.438,100.207 94.238,100.207 94.238,97.207 93.438,97.207 93.438,96.207" style="fill:none;stroke-width:0.050000mm;stroke:black"/>
<polygon points="289.088,96.207 289.088,97.207 288.288,97.207 288.288,100.207 289.088,100.207 289.088,106.107 288.288,106.107 288.288,109.107 289.088,109.107 289.088,110.107 302.988,110.107 302.988,109.107 303.788,109.107 303.788,106.107 302.988,106.107 302.988,100.207 303.788,100.207 303.788,97.207 302.988,97.207 302.988,96.207" style="fill:none;stroke-width:0.050000mm;stroke:black"/>
<polygon points="98.588,93.825 98.588,94.825 97.788,94.825 97.788,97.825 98.588,97.825 98.588,103.725 97.788,103.725 97.788,106.725 98.588,106.725 98.588,107.725 112.488,107.725 112.488,106.725 113.288,106.725 113.288,103.725 112.488,103.725 112.488,97.825 113.288,97.825 113.288,94.825 112.488,94.825 112.488,93.825" style="fill:none;stroke-width:0.050000mm;stroke:black"/>
<polygon points="270.038,93.825 270.038,94.825 269.238,94.825 269.238,97.825 270.038,97.825 270.038,103.725 269.238,103.725 269.238,106.725 270.038,106.725 270.038,107.725 283.938,107.725 283.938,106.725 284.738,106.725 284.738,103.725 283.938,103.725 283.938,97.825 284.738,97.825 284.738,94.825 283.938,94.825 283.938,93.825" style="fill:none;stroke-width:0.050000mm;stroke:black"/>
<polygon points="29.532,83.824 29.532,84.824 28.732,84.824 28.732,87.824 29.532,87.824 29.532,88.524 27.907,88.524 27.907,85.294 26.182,85.294 26.182,84.374 22.982,84.374 22.982,85.294 21.257,85.294 21.257,88.524 20.432,88.524 20.432,91.224 21.257,91.224 21.257,97.494 22.982,97.494 22.982,98.474 26.182,98.474 26.182,97.494 27.907,97.494 27.907,93.024 29.532,93.024 29.532,93.724 28.732,93.724 28.732,96.724 29.532,96.724 29.532,97.724 43.432,97.724 43.432,96.724 44.232,96.724 44.232,93.724 43.432,93.724 43.432,93.024 45.057,93.024 45.057,97.494 46.782,97.494 46.782,98.474 49.982,98.474 49.982,97.494 51.707,97.494 51.707,91.224 52.532,91.224 52.532,88.524 51.707,88.524 51.707,85.294 49.982,85.294 49.982,84.374 46.782,84.374 46.782,85.294 45.057,85.294 45.057,88.524 43.432,88.524 43.432,87.824 44.232,87.824 44.232,84.824 43.432,84.824 43.432,83.824" style="fill:none;stroke-width:0.050000mm;stroke:black"/>
<polygon points="339.094,83.824 339.094,84.824 338.294,84.824 338.294,87.824 339.094,87.824 339.094,88.524 337.469,88.524 337.469,85.294 335.744,85.294 335.744,84.374 332.544,84.374 332.544,85.294 330.819,85.294 330.819,88.524 329.994,88.524 329.994,91.224 330.819,91.224 330.819,97.494 332.544,97.494 332.544,98.474 335.744,98.474 335.744,97.494 337.469,97.494 337.469,93.024 339.094,93.024 339.094,93.724 338.294,93.724 338.294,96.724 339.094,96.724 339.094,97.724 352.994,97.724 352.994,96.724 353.794,96.724 353.794,93.724 352.994,93.724 352.994,93.024 354.619,93.024 354.619,97.494 356.344,97.494 356.344,98.474 359.544,98.474 359.544,97.494 361.269,97.494 361.269,91.224 362.094,91.224 362.094,88.524 361.269,88.524 361.269,85.294 359.544,85.294 359.544,84.374 356.344,84.374 356.344,85.294 354.619,85.294 354.619,88.524 352.994,88.524 352.994,87.824 353.794,87.824 353.794,84.824 352.994,84.824 352.994,83.824" style="fill:none;stroke-width:0.050000mm;stroke:black"/>
<polygon points="60.488,81.919 60.488,82.919 59.688,82.919 59.688,85.919 60.488,85.919 60.488,91.819 59.688,91.819 59.688,94.819 60.488,94.819 60.488,95.819 74.388,95.819 74.388,94.819 75.188,94.819 75.188,91.819 74.388,91.819 74.388,85.919 75.188,85.919 75.188,82.919 74.388,82.919 74.388,81.919" style="fill:none;stroke-width:0.050000mm;stroke:black"/>
<polygon points="308.138,81.919 308.138,82.919 307.338,82.919 307.338,85.919 308.138,85.919 308.138,91.819 307.338,91.819 307.338,94.819 308.138,94.819 308.138,95.819 322.038,95.819 322.038,94.819 322.838,94.819 322.838,91.819 322.038,91.819 322.038,85.919 322.838,85.919 322.838,82.919 322.038,82.919 322.038,81.919" style="fill:none;stroke-width:0.050000mm;stroke:black"/>
<polygon points="136.688,79.538 136.688,80.538 135.888,80.538 135.888,83.538 136.688,83.538 136.688,89.438 135.888,89.438 135.888,92.438 136.688,92.438 136.688,93.438 150.588,93.438 150.588,92.438 151.388,92.438 151.388,89.438 150.588,89.438 150.588,83.538 151.388,83.538 151.388,80.538 150.588,80.538 150.588,79.538" style="fill:none;stroke-width:0.050000mm;stroke:black"/>
<polygon points="231.938,79.538 231.938,80.538 231.138,80.538 231.138,83.538 231.938,83.538 231.938,89.438 231.138,89.438 231.138,92.438 231.938,92.438 231.938,93.438 245.838,93.438 245.838,92.438 246.638,92.438 246.638,89.438 245.838,89.438 245.838,83.538 246.638,83.538 246.638,80.538 245.838,80.538 245.838,79.538" style="fill:none;stroke-width:0.050000mm;stroke:black"/>
<polygon points="79.538,77.252 79.538,78.252 78.738,78.252 78.738,81.252 79.538,81.252 79.538,87.152 78.738,87.152 78.738,90.152 79.538,90.152 79.538,91.152 93.438,91.152 93.438,90.152 94.238,90.152 94.238,87.152 93.438,87.152 93.438,81.252 94.238,81.252 94.238,78.252 93.438,78.252 93.438,77.252" style="fill:none;stroke-width:0.050000mm;stroke:black"/>
<polygon points="117.638,77.157 117.638,78.157 116.838,78.157 116.838,81.157 117.638,81.157 117.638,87.057 116.838,87.057 116.838,90.057 117.638,90.057 117.638,91.057 131.538,91.057 131.538,90.057 132.338,90.057 132.338,87.057 131.538,87.057 131.538,81.157 132.338,81.157 132.338,78.157 131.538,78.157 131.538,77.157" style="fill:none;stroke-width:0.050000mm;stroke:black"/>
<polygon points="250.988,77.157 250.988,78.157 250.188,78.157 250.188,81.157 250.988,81.157 250.988,87.057 250.188,87.057 250.188,90.057 250.988,90.057 250.988,91.057 264.888,91.057 264.888,90.057 265.688,90.057 265.688,87.057 264.888,87.057 264.888,81.157 265.688,81.157 265.688,78.157 264.888,78.157 264.888,77.157" style="fill:none;stroke-width:0.050000mm;stroke:black"/>
<polygon points="289.088,77.157 289.088,78.157 288.288,78.157 288.288,81.157 289.088,81.157 289.088,87.057 288.288,87.057 288.288,90.057 289.088,90.057 289.088,91.057 302.988,91.057 302.988,90.057 303.788,90.057 303.788,87.057 302.988,87.057 302.988,81.157 303.788,81.157 303.788,78.157 302.988,78.157 302.988,77.157" style="fill:none;stroke-width:0.050000mm;stroke:black"/>
<polygon points="98.588,74.775 98.588,75.775 97.788,75.775 97.788,78.775 98.588,78.775 98.588,84.676 97.788,84.676 97.788,87.676 98.588,87.676 98.588,88.676 112.488,88.676 112.488,87.676 113.288,87.676 113.288,84.676 112.488,84.676 112.488,78.775 113.288,78.775 113.288,75.775 112.488,75.775 112.488,74.775" style="fill:none;stroke-width:0.050000mm;stroke:black"/>
<polygon points="270.038,74.775 270.038,75.775 269.238,75.775 269.238,78.775 270.038,78.775 270.038,84.676 269.238,84.676 269.238,87.676 270.038,87.676 270.038,88.676 283.938,88.676 283.938,87.676 284.738,87.676 284.738,84.676 283.938,84.676 283.938,78.775 284.738,78.775 284.738,75.775 283.938,75.775 283.938,74.775" style="fill:none;stroke-width:0.050000mm;stroke:black"/>
<polygon points="34.294,64.773 34.294,65.774 33.494,65.774 33.494,68.774 34.294,68.774 34.294,74.674 33.494,74.674 33.494,77.674 34.294,77.674 34.294,78.674 48.194,78.674 48.194,77.674 48.994,77.674 48.994,74.674 48.194,74.674 48.194,68.774 48.994,68.774 48.994,65.774 48.194,65.774 48.194,64.773" style="fill:none;stroke-width:0.050000mm;stroke:black"/>
<polygon points="334.332,64.773 334.332,65.774 333.532,65.774 333.532,68.774 334.332,68.774 334.332,74.674 333.532,74.674 333.532,77.674 334.332,77.674 334.332,78.674 348.232,78.674 348.232,77.674 349.032,77.674 349.032,74.674 348.232,74.674 348.232,68.774 349.032,68.774 349.032,65.774 348.232,65.774 348.232,64.773" style="fill:none;stroke-width:0.050000mm;stroke:black"/>
<polygon points="60.488,62.869 60.488,63.869 59.688,63.869 59.688,66.869 60.488,66.869 60.488,72.769 59.688,72.769 59.688,75.769 60.488,75.769 60.488,76.769 74.388,76.769 74.388,75.769 75.188,75.769 75.188,72.769 74.388,72.769 74.388,66.869 75.188,66.869 75.188,63.869 74.388,63.869 74.388,62.869" style="fill:none;stroke-width:0.050000mm;stroke:black"/>
<polygon points="308.138,62.869 308.138,63.869 307.338,63.869 307.338,66.869 308.138,66.869 308.138,72.769 307.338,72.769 307.338,75.769 308.138,75.769 308.138,76.769 322.038,76.769 322.038,75.769 322.838,75.769 322.838,72.769 322.038,72.769 322.038,66.869 322.838,66.869 322.838,63.869 322.038,63.869 322.038,62.869" style="fill:none;stroke-width:0.050000mm;stroke:black"/>
<polygon points="155.738,62.393 155.738,63.393 154.938,63.393 154.938,66.393 155.738,66.393 155.738,72.293 154.938,72.293 154.938,75.293 155.738,75.293 155.738,76.293 169.638,76.293 169.638,75.293 170.438,75.293 170.438,72.293 169.638,72.293 169.638,66.393 170.438,66.393 170.438,63.393 169.638,63.393 169.638,62.393" style="fill:none;stroke-width:0.050000mm;stroke:black"/>
<polygon points="212.888,62.393 212.888,63.393 212.088,63.393 212.088,66.393 212.888,66.393 212.888,72.293 212.088,72.293 212.088,75.293 212.888,75.293 212.888,76.293 226.788,76.293 226.788,75.293 227.588,75.293 227.588,72.293 226.788,72.293 226.788,66.393 227.588,66.393 227.588,63.393 226.788,63.393 226.788,62.393" style="fill:none;stroke-width:0.050000mm;stroke:black"/>
<polygon points="136.688,60.488 136.688,61.488 135.888,61.488 135.888,64.487 136.688,64.487 136.688,70.388 135.888,70.388 135.888,73.388 136.688,73.388 136.688,74.388 150.588,74.388 150.588,73.388 151.388,73.388 151.388,70.388 150.588,70.388 150.588,64.487 151.388,64.487 151.388,61.488 150.588,61.488 150.588,60.488" style="fill:none;stroke-width:0.050000mm;stroke:black"/>
<polygon points="231.938,60.488 231.938,61.488 231.138,61.488 231.138,64.487 231.938,64.487 231.938,70.388 231.138,70.388 231.138,73.388 231.938,73.388 231.938,74.388 245.838,74.388 245.838,73.388 246.638,73.388 246.638,70.388 245.838,70.388 245.838,64.487 246.638,64.487 246.638,61.488 245.838,61.488 245.838,60.488" style="fill:none;stroke-width:0.050000mm;stroke:black"/>
<polygon points="250.988,58.202 250.988,59.202 250.188,59.202 250.188,62.202 250.988,62.202 250.988,68.102 250.188,68.102 250.188,71.102 250.988,71.102 250.988,72.102 264.888,72.102 264.888,71.102 265.688,71.102 265.688,68.102 264.888,68.102 264.888,62.202 265.688,62.202 265.688,59.202 264.888,59.202 264.888,58.202" style="fill:none;stroke-width:0.050000mm;stroke:black"/>
<polygon points="79.538,58.107 79.538,59.107 78.738,59.107 78.738,62.107 79.538,62.107 79.538,68.007 78.738,68.007 78.738,71.007 79.538,71.007 79.538,72.007 93.438,72.007 93.438,71.007 94.238,71.007 94.238,68.007 93.438,68.007 93.438,62.107 94.238,62.107 94.238,59.107 93.438,59.107 93.438,58.107" style="fill:none;stroke-width:0.050000mm;stroke:black"/>
<polygon points="117.638,58.107 117.638,59.107 116.838,59.107 116.838,62.107 117.638,62.107 117.638,68.007 116.838,68.007 116.838,71.007 117.638,71.007 117.638,72.007 131.538,72.007 131.538,71.007 132.338,71.007 132.338,68.007 131.538,68.007 131.538,62.107 132.338,62.107 132.338,59.107 131.538,59.107 131.538,58.107" style="fill:none;stroke-width:0.050000mm;stroke:black"/>
<polygon points="289.088,58.107 289.088,59.107 288.288,59.107 288.288,62.107 289.088,62.107 289.088,68.007 288.288,68.007 288.288,71.007 289.088,71.007 289.088,72.007 302.988,72.007 302.988,71.007 303.788,71.007 303.788,68.007 302.988,68.007 302.988,62.107 303.788,62.107 303.788,59.107 302.988,59.107 302.988,58.107" style="fill:none;stroke-width:0.050000mm;stroke:black"/>
<polygon points="98.588,55.726 98.588,56.726 97.788,56.726 97.788,59.726 98.588,59.726 98.588,65.626 97.788,65.626 97.788,68.626 98.588,68.626 98.588,69.626 112.488,69.626 112.488,68.626 113.288,68.626 113.288,65.626 112.488,65.626 112.488,59.726 113.288,59.726 113.288,56.726 112.488,56.726 112.488,55.726" style="fill:none;stroke-width:0.050000mm;stroke:black"/>
<polygon points="270.038,55.726 270.038,56.726 269.238,56.726 269.238,59.726 270.038,59.726 270.038,65.626 269.238,65.626 269.238,68.626 270.038,68.626 270.038,69.626 283.938,69.626 283.938,68.626 284.738,68.626 284.738,65.626 283.938,65.626 283.938,59.726 284.738,59.726 284.738,56.726 283.938,56.726 283.938,55.726" style="fill:none;stroke-width:0.050000mm;stroke:black"/>
<polygon points="36.676,45.724 36.676,46.724 35.876,46.724 35.876,49.724 36.676,49.724 36.676,55.624 35.876,55.624 35.876,58.624 36.676,58.624 36.676,59.624 50.576,59.624 50.576,58.624 51.376,58.624 51.376,55.624 50.576,55.624 50.576,49.724 51.376,49.724 51.376,46.724 50.576,46.724 50.576,45.724" style="fill:none;stroke-width:0.050000mm;stroke:black"/>
<polygon points="331.951,45.724 331.951,46.724 331.151,46.724 331.151,49.724 331.951,49.724 331.951,55.624 331.151,55.624 331.151,58.624 331.951,58.624 331.951,59.624 345.851,59.624 345.851,58.624 346.651,58.624 346.651,55.624 345.851,55.624 345.851,49.724 346.651,49.724 346.651,46.724 345.851,46.724 345.851,45.724" style="fill:none;stroke-width:0.050000mm;stroke:black"/>
<polygon points="60.488,43.819 60.488,44.819 59.688,44.819 59.688,47.819 60.488,47.819 60.488,53.719 59.688,53.719 59.688,56.719 60.488,56.719 60.488,57.719 74.388,57.719 74.388,56.719 75.188,56.719 75.188,53.719 74.388,53.719 74.388,47.819 75.188,47.819 75.188,44.819 74.388,44.819 74.388,43.819" style="fill:none;stroke-width:0.050000mm;stroke:black"/>
<polygon points="308.138,43.819 308.138,44.819 307.338,44.819 307.338,47.819 308.138,47.819 308.138,53.719 307.338,53.719 307.338,56.719 308.138,56.719 308.138,57.719 322.038,57.719 322.038,56.719 322.838,56.719 322.838,53.719 322.038,53.719 322.038,47.819 322.838,47.819 322.838,44.819 322.038,44.819 322.038,43.819" style="fill:none;stroke-width:0.050000mm;stroke:black"/>
<polygon points="155.738,43.343 155.738,44.343 154.938,44.343 154.938,47.343 155.738,47.343 155.738,53.243 154.938,53.243 154.938,56.243 155.738,56.243 155.738,57.243 169.638,57.243 169.638,56.243 170.438,56.243 170.438,53.243 169.638,53.243 169.638,47.343 170.438,47.343 170.438,44.343 169.638,44.343 169.638,43.343" style="fill:none;stroke-width:0.050000mm;stroke:black"/>
<polygon points="212.888,43.343 212.888,44.343 212.088,44.343 212.088,47.343 212.888,47.343 212.888,53.243 212.088,53.243 212.088,56.243 212.888,56.243 212.888,57.243 226.788,57.243 226.788,56.243 227.588,56.243 227.588,53.243 226.788,53.243 226.788,47.343 227.588,47.343 227.588,44.343 226.788,44.343 226.788,43.343" style="fill:none;stroke-width:0.050000mm;stroke:black"/>
<polygon points="136.688,41.438 136.688,42.438 135.888,42.438 135.888,45.438 136.688,45.438 136.688,51.338 135.888,51.338 135.888,54.338 136.688,54.338 136.688,55.338 150.588,55.338 150.588,54.338 151.388,54.338 151.388,51.338 150.588,51.338 150.588,45.438 151.388,45.438 151.388,42.438 150.588,42.438 150.588,41.438" style="fill:none;stroke-width:0.050000mm;stroke:black"/>
<polygon points="231.938,41.438 231.938,42.438 231.138,42.438 231.138,45.438 231.938,45.438 231.938,51.338 231.138,51.338 231.138,54.338 231.938,54.338 231.938,55.338 245.838,55.338 245.838,54.338 246.638,54.338 246.638,51.338 245.838,51.338 245.838,45.438 246.638,45.438 246.638,42.438 245.838,42.438 245.838,41.438" style="fill:none;stroke-width:0.050000mm;stroke:black"/>
<polygon points="79.538,39.057 79.538,40.057 78.738,40.057 78.738,43.057 79.538,43.057 79.538,48.957 78.738,48.957 78.738,51.957 79.538,51.957 79.538,52.957 93.438,52.957 93.438,51.957 94.238,51.957 94.238,48.957 93.438,48.957 93.438,43.057 94.238,43.057 94.238,40.057 93.438,40.057 93.438,39.057" style="fill:none;stroke-width:0.050000mm;stroke:black"/>
<polygon points="117.638,39.057 117.638,40.057 116.838,40.057 116.838,43.057 117.638,43.057 117.638,48.957 116.838,48.957 116.838,51.957 117.638,51.957 117.638,52.957 131.538,52.957 131.538,51.957 132.338,51.957 132.338,48.957 131.538,48.957 131.538,43.057 132.338,43.057 132.338,40.057 131.538,40.057 131.538,39.057" style="fill:none;stroke-width:0.050000mm;stroke:black"/>
<polygon points="250.988,39.057 250.988,40.057 250.188,40.057 250.188,43.057 250.988,43.057 250.988,48.957 250.188,48.957 250.188,51.957 250.988,51.957 250.988,52.957 264.888,52.957 264.888,51.957 265.688,51.957 265.688,48.957 264.888,48.957 264.888,43.057 265.688,43.057 265.688,40.057 264.888,40.057 264.888,39.057" style="fill:none;stroke-width:0.050000mm;stroke:black"/>
<polygon points="289.088,39.057 289.088,40.057 288.288,40.057 288.288,43.057 289.088,43.057 289.088,48.957 288.288,48.957 288.288,51.957 289.088,51.957 289.088,52.957 302.988,52.957 302.988,51.957 303.788,51.957 303.788,48.957 302.988,48.957 302.988,43.057 303.788,43.057 303.788,40.057 302.988,40.057 302.988,39.057" style="fill:none;stroke-width:0.050000mm;stroke:black"/>
<polygon points="98.588,36.676 98.588,37.676 97.788,37.676 97.788,40.676 98.588,40.676 98.588,46.576 97.788,46.576 97.788,49.576 98.588,49.576 98.588,50.576 112.488,50.576 112.488,49.576 113.288,49.576 113.288,46.576 112.488,46.576 112.488,40.676 113.288,40.676 113.288,37.676 112.488,37.676 112.488,36.676" style="fill:none;stroke-width:0.050000mm;stroke:black"/>
<polygon points="270.038,36.676 270.038,37.676 269.238,37.676 269.238,40.676 270.038,40.676 270.038,46.576 269.238,46.576 269.238,49.576 270.038,49.576 270.038,50.576 283.938,50.576 283.938,49.576 284.738,49.576 284.738,46.576 283.938,46.576 283.938,40.676 284.738,40.676 284.738,37.676 283.938,37.676 283.938,36.676" style="fill:none;stroke-width:0.050000mm;stroke:black"/>
<polygon points="22.388,26.674 22.388,27.674 21.588,27.674 21.588,30.674 22.388,30.674 22.388,36.574 21.588,36.574 21.588,39.574 22.388,39.574 22.388,40.574 36.288,40.574 36.288,39.574 37.088,39.574 37.088,36.574 36.288,36.574 36.288,30.674 37.088,30.674 37.088,27.674 36.288,27.674 36.288,26.674" style="fill:none;stroke-width:0.050000mm;stroke:black"/>
<polygon points="41.438,26.674 41.438,27.674 40.638,27.674 40.638,30.674 41.438,30.674 41.438,36.574 40.638,36.574 40.638,39.574 41.438,39.574 41.438,40.574 55.338,40.574 55.338,39.574 56.138,39.574 56.138,36.574 55.338,36.574 55.338,30.674 56.138,30.674 56.138,27.674 55.338,27.674 55.338,26.674" style="fill:none;stroke-width:0.050000mm;stroke:black"/>
<polygon points="327.188,26.674 327.188,27.674 326.388,27.674 326.388,30.674 327.188,30.674 327.188,36.574 326.388,36.574 326.388,39.574 327.188,39.574 327.188,40.574 341.088,40.574 341.088,39.574 341.888,39.574 341.888,36.574 341.088,36.574 341.088,30.674 341.888,30.674 341.888,27.674 341.088,27.674 341.088,26.674" style="fill:none;stroke-width:0.050000mm;stroke:black"/>
<polygon points="346.238,26.674 346.238,27.674 345.438,27.674 345.438,30.674 346.238,30.674 346.238,36.574 345.438,36.574 345.438,39.574 346.238,39.574 346.238,40.574 360.138,40.574 360.138,39.574 360.938,39.574 360.938,36.574 360.138,36.574 360.138,30.674 360.938,30.674 360.938,27.674 360.138,27.674 360.138,26.674" style="fill:none;stroke-width:0.050000mm;stroke:black"/>
<polygon points="60.488,24.769 60.488,25.769 59.688,25.769 59.688,28.769 60.488,28.769 60.488,34.669 59.688,34.669 59.688,37.669 60.488,37.669 60.488,38.669 74.388,38.669 74.388,37.669 75.188,37.669 75.188,34.669 74.388,34.669 74.388,28.769 75.188,28.769 75.188,25.769 74.388,25.769 74.388,24.769" style="fill:none;stroke-width:0.050000mm;stroke:black"/>
<polygon points="308.138,24.769 308.138,25.769 307.338,25.769 307.338,28.769 308.138,28.769 308.138,34.669 307.338,34.669 307.338,37.669 308.138,37.669 308.138,38.669 322.038,38.669 322.038,37.669 322.838,37.669 322.838,34.669 322.038,34.669 322.038,28.769 322.838,28.769 322.838,25.769 322.038,25.769 322.038,24.769" style="fill:none;stroke-width:0.050000mm;stroke:black"/>
<polygon points="155.738,24.293 155.738,25.293 154.938,25.293 154.938,28.293 155.738,28.293 155.738,34.193 154.938,34.193 154.938,37.193 155.738,37.193 155.738,38.193 169.638,38.193 169.638,37.193 170.438,37.193 170.438,34.193 169.638,34.193 169.638,28.293 170.438,28.293 170.438,25.293 169.638,25.293 169.638,24.293" style="fill:none;stroke-width:0.050000mm;stroke:black"/>
<polygon points="212.888,24.293 212.888,25.293 212.088,25.293 212.088,28.293 212.888,28.293 212.888,34.193 212.088,34.193 212.088,37.193 212.888,37.193 212.888,38.193 226.788,38.193 226.788,37.193 227.588,37.193 227.588,34.193 226.788,34.193 226.788,28.293 227.588,28.293 227.588,25.293 226.788,25.293 226.788,24.293" style="fill:none;stroke-width:0.050000mm;stroke:black"/>
<polygon points="136.688,22.388 136.688,23.388 135.888,23.388 135.888,26.388 136.688,26.388 136.688,32.288 135.888,32.288 135.888,35.288 136.688,35.288 136.688,36.288 150.588,36.288 150.588,35.288 151.388,35.288 151.388,32.288 150.588,32.288 150.588,26.388 151.388,26.388 151.388,23.388 150.588,23.388 150.588,22.388" style="fill:none;stroke-width:0.050000mm;stroke:black"/>
<polygon points="231.938,22.388 231.938,23.388 231.138,23.388 231.138,26.388 231.938,26.388 231.938,32.288 231.138,32.288 231.138,35.288 231.938,35.288 231.938,36.288 245.838,36.288 245.838,35.288 246.638,35.288 246.638,32.288 245.838,32.288 245.838,26.388 246.638,26.388 246.638,23.388 245.838,23.388 245.838,22.388" style="fill:none;stroke-width:0.050000mm;stroke:black"/>
<polygon points="79.538,20.007 79.538,21.007 78.738,21.007 78.738,24.007 79.538,24.007 79.538,29.907 78.738,29.907 78.738,32.907 79.538,32.907 79.538,33.907 93.438,33.907 93.438,32.907 94.238,32.907 94.238,29.907 93.438,29.907 93.438,24.007 94.238,24.007 94.238,21.007 93.438,21.007 93.438,20.007" style="fill:none;stroke-width:0.050000mm;stroke:black"/>
<polygon points="117.638,20.007 117.638,21.007 116.838,21.007 116.838,24.007 117.638,24.007 117.638,29.907 116.838,29.907 116.838,32.907 117.638,32.907 117.638,33.907 131.538,33.907 131.538,32.907 132.338,32.907 132.338,29.907 131.538,29.907 131.538,24.007 132.338,24.007 132.338,21.007 131.538,21.007 131.538,20.007" style="fill:none;stroke-width:0.050000mm;stroke:black"/>
<polygon points="250.988,20.007 250.988,21.007 250.188,21.007 250.188,24.007 250.988,24.007 250.988,29.907 250.188,29.907 250.188,32.907 250.988,32.907 250.988,33.907 264.888,33.907 264.888,32.907 265.688,32.907 265.688,29.907 264.888,29.907 264.888,24.007 265.688,24.007 265.688,21.007 264.888,21.007 264.888,20.007" style="fill:none;stroke-width:0.050000mm;stroke:black"/>
<polygon points="289.088,20.007 289.088,21.007 288.288,21.007 288.288,24.007 289.088,24.007 289.088,29.907 288.288,29.907 288.288,32.907 289.088,32.907 289.088,33.907 302.988,33.907 302.988,32.907 303.788,32.907 303.788,29.907 302.988,29.907 302.988,24.007 303.788,24.007 303.788,21.007 302.988,21.007 302.988,20.007" style="fill:none;stroke-width:0.050000mm;stroke:black"/>
<polygon points="98.588,17.626 98.588,18.626 97.788,18.626 97.788,21.626 98.588,21.626 98.588,27.526 97.788,27.526 97.788,30.526 98.588,30.526 98.588,31.526 112.488,31.526 112.488,30.526 113.288,30.526 113.288,27.526 112.488,27.526 112.488,21.626 113.288,21.626 113.288,18.626 112.488,18.626 112.488,17.626" style="fill:none;stroke-width:0.050000mm;stroke:black"/>
<polygon points="270.038,17.626 270.038,18.626 269.238,18.626 269.238,21.626 270.038,21.626 270.038,27.526 269.238,27.526 269.238,30.526 270.038,30.526 270.038,31.526 283.938,31.526 283.938,30.526 284.738,30.526 284.738,27.526 283.938,27.526 283.938,21.626 284.738,21.626 284.738,18.626 283.938,18.626 283.938,17.626" style="fill:none;stroke-width:0.050000mm;stroke:black"/>
<polygon points="371.719,7.720 371.036,8.068 370.494,8.610 370.146,9.293 370.026,10.050 370.146,10.808 370.494,11.491 371.036,12.033 371.719,12.381 372.476,12.501 373.234,12.381 373.917,12.033 374.459,11.491 374.807,10.808 374.926,10.051 374.807,9.293 374.459,8.610 373.917,8.068 373.234,7.720 372.476,7.601" style="fill:none;stroke-width:0.050000mm;stroke:black"/>
<polygon points="9.293,7.720 8.610,8.068 8.068,8.610 7.720,9.293 7.601,10.051 7.720,10.808 8.068,11.491 8.610,12.033 9.293,12.381 10.051,12.501 10.808,12.381 11.491,12.033 12.033,11.491 12.381,10.808 12.501,10.051 12.381,9.293 12.033,8.610 11.491,8.068 10.808,7.720 10.051,7.601" style="fill:none;stroke-width:0.050000mm;stroke:black"/>
</svg>
